G75*
%MOIN*%
%OFA0B0*%
%FSLAX24Y24*%
%IPPOS*%
%LPD*%
%AMOC8*
5,1,8,0,0,1.08239X$1,22.5*
%
%ADD10R,0.0217X0.0472*%
%ADD11R,0.0472X0.0315*%
%ADD12R,0.0315X0.0472*%
%ADD13C,0.0740*%
%ADD14R,0.0200X0.0580*%
%ADD15R,0.0630X0.0551*%
%ADD16R,0.0394X0.0433*%
%ADD17R,0.0315X0.0315*%
%ADD18OC8,0.0740*%
%ADD19R,0.0433X0.0394*%
%ADD20R,0.0630X0.0118*%
%ADD21C,0.0100*%
%ADD22C,0.0160*%
%ADD23C,0.0376*%
D10*
X003596Y011478D03*
X004344Y011478D03*
X004344Y012502D03*
X003970Y012502D03*
X003596Y012502D03*
D11*
X002880Y012584D03*
X002880Y011876D03*
X005040Y011876D03*
X005040Y012584D03*
X003650Y004204D03*
X003650Y003496D03*
D12*
X003064Y011260D03*
X002356Y011260D03*
D13*
X001550Y001250D03*
X001550Y002250D03*
X001550Y003250D03*
X001550Y004250D03*
X001550Y005250D03*
X001550Y006250D03*
X001550Y007250D03*
X001550Y008250D03*
X001550Y009250D03*
X001550Y010250D03*
X001550Y011250D03*
X001550Y012250D03*
X001550Y013250D03*
X001550Y014250D03*
X001550Y015250D03*
X008550Y015250D03*
X008550Y014250D03*
X008550Y013250D03*
X008550Y012250D03*
X008550Y011250D03*
X008550Y010250D03*
X008550Y009250D03*
X008550Y008250D03*
X008550Y007250D03*
X008550Y006250D03*
X008550Y005250D03*
X008550Y004250D03*
X008550Y003250D03*
X008550Y002250D03*
X008550Y001250D03*
D14*
G36*
X005143Y006261D02*
X005284Y006402D01*
X005693Y005993D01*
X005552Y005852D01*
X005143Y006261D01*
G37*
G36*
X005362Y006480D02*
X005503Y006621D01*
X005912Y006212D01*
X005771Y006071D01*
X005362Y006480D01*
G37*
G36*
X005588Y006706D02*
X005729Y006847D01*
X006138Y006438D01*
X005997Y006297D01*
X005588Y006706D01*
G37*
G36*
X005807Y006925D02*
X005948Y007066D01*
X006357Y006657D01*
X006216Y006516D01*
X005807Y006925D01*
G37*
G36*
X006034Y007152D02*
X006175Y007293D01*
X006584Y006884D01*
X006443Y006743D01*
X006034Y007152D01*
G37*
G36*
X006253Y007371D02*
X006394Y007512D01*
X006803Y007103D01*
X006662Y006962D01*
X006253Y007371D01*
G37*
G36*
X006479Y007597D02*
X006620Y007738D01*
X007029Y007329D01*
X006888Y007188D01*
X006479Y007597D01*
G37*
G36*
X006698Y007816D02*
X006839Y007957D01*
X007248Y007548D01*
X007107Y007407D01*
X006698Y007816D01*
G37*
G36*
X007107Y008693D02*
X007248Y008552D01*
X006839Y008143D01*
X006698Y008284D01*
X007107Y008693D01*
G37*
G36*
X006888Y008912D02*
X007029Y008771D01*
X006620Y008362D01*
X006479Y008503D01*
X006888Y008912D01*
G37*
G36*
X006662Y009138D02*
X006803Y008997D01*
X006394Y008588D01*
X006253Y008729D01*
X006662Y009138D01*
G37*
G36*
X006443Y009357D02*
X006584Y009216D01*
X006175Y008807D01*
X006034Y008948D01*
X006443Y009357D01*
G37*
G36*
X006216Y009584D02*
X006357Y009443D01*
X005948Y009034D01*
X005807Y009175D01*
X006216Y009584D01*
G37*
G36*
X005997Y009803D02*
X006138Y009662D01*
X005729Y009253D01*
X005588Y009394D01*
X005997Y009803D01*
G37*
G36*
X005771Y010029D02*
X005912Y009888D01*
X005503Y009479D01*
X005362Y009620D01*
X005771Y010029D01*
G37*
G36*
X005552Y010248D02*
X005693Y010107D01*
X005284Y009698D01*
X005143Y009839D01*
X005552Y010248D01*
G37*
G36*
X004407Y010107D02*
X004548Y010248D01*
X004957Y009839D01*
X004816Y009698D01*
X004407Y010107D01*
G37*
G36*
X004188Y009888D02*
X004329Y010029D01*
X004738Y009620D01*
X004597Y009479D01*
X004188Y009888D01*
G37*
G36*
X003962Y009662D02*
X004103Y009803D01*
X004512Y009394D01*
X004371Y009253D01*
X003962Y009662D01*
G37*
G36*
X003743Y009443D02*
X003884Y009584D01*
X004293Y009175D01*
X004152Y009034D01*
X003743Y009443D01*
G37*
G36*
X003516Y009216D02*
X003657Y009357D01*
X004066Y008948D01*
X003925Y008807D01*
X003516Y009216D01*
G37*
G36*
X003297Y008997D02*
X003438Y009138D01*
X003847Y008729D01*
X003706Y008588D01*
X003297Y008997D01*
G37*
G36*
X003071Y008771D02*
X003212Y008912D01*
X003621Y008503D01*
X003480Y008362D01*
X003071Y008771D01*
G37*
G36*
X002852Y008552D02*
X002993Y008693D01*
X003402Y008284D01*
X003261Y008143D01*
X002852Y008552D01*
G37*
G36*
X003261Y007957D02*
X003402Y007816D01*
X002993Y007407D01*
X002852Y007548D01*
X003261Y007957D01*
G37*
G36*
X003480Y007738D02*
X003621Y007597D01*
X003212Y007188D01*
X003071Y007329D01*
X003480Y007738D01*
G37*
G36*
X003706Y007512D02*
X003847Y007371D01*
X003438Y006962D01*
X003297Y007103D01*
X003706Y007512D01*
G37*
G36*
X003925Y007293D02*
X004066Y007152D01*
X003657Y006743D01*
X003516Y006884D01*
X003925Y007293D01*
G37*
G36*
X004152Y007066D02*
X004293Y006925D01*
X003884Y006516D01*
X003743Y006657D01*
X004152Y007066D01*
G37*
G36*
X004371Y006847D02*
X004512Y006706D01*
X004103Y006297D01*
X003962Y006438D01*
X004371Y006847D01*
G37*
G36*
X004597Y006621D02*
X004738Y006480D01*
X004329Y006071D01*
X004188Y006212D01*
X004597Y006621D01*
G37*
G36*
X004816Y006402D02*
X004957Y006261D01*
X004548Y005852D01*
X004407Y005993D01*
X004816Y006402D01*
G37*
D15*
X003396Y013464D03*
X003396Y015236D03*
X006704Y015236D03*
X006704Y014350D03*
X006704Y013464D03*
D16*
X005710Y012570D03*
X005710Y011900D03*
X007860Y005265D03*
X007860Y004595D03*
X002250Y004265D03*
X002250Y004935D03*
D17*
X004310Y004205D03*
X004310Y003615D03*
D18*
X004150Y002550D03*
X004150Y001550D03*
X005150Y001550D03*
X005150Y002550D03*
X006150Y002550D03*
X006150Y001550D03*
D19*
G36*
X006560Y005061D02*
X006255Y005366D01*
X006534Y005645D01*
X006839Y005340D01*
X006560Y005061D01*
G37*
G36*
X006086Y005535D02*
X005781Y005840D01*
X006060Y006119D01*
X006365Y005814D01*
X006086Y005535D01*
G37*
X006965Y006550D03*
X007635Y006550D03*
G36*
X003584Y010325D02*
X003889Y010020D01*
X003610Y009741D01*
X003305Y010046D01*
X003584Y010325D01*
G37*
G36*
X003110Y010799D02*
X003415Y010494D01*
X003136Y010215D01*
X002831Y010520D01*
X003110Y010799D01*
G37*
D20*
X002567Y009789D03*
X002567Y009415D03*
X002567Y009041D03*
D21*
X002567Y008983D01*
X003112Y008438D01*
X003127Y008418D01*
X002956Y008235D02*
X002070Y008235D01*
X002070Y008147D02*
X002070Y008353D01*
X001991Y008545D01*
X001845Y008691D01*
X001702Y008750D01*
X001845Y008809D01*
X001991Y008955D01*
X002070Y009147D01*
X002070Y009353D01*
X001991Y009545D01*
X001845Y009691D01*
X001702Y009750D01*
X001845Y009809D01*
X001991Y009955D01*
X002070Y010147D01*
X002070Y010353D01*
X001991Y010545D01*
X001845Y010691D01*
X001702Y010750D01*
X001845Y010809D01*
X001991Y010955D01*
X002048Y011094D01*
X002048Y011004D01*
X002058Y010966D01*
X002078Y010932D01*
X002106Y010904D01*
X002140Y010884D01*
X002178Y010874D01*
X002327Y010874D01*
X002327Y011231D01*
X002384Y011231D01*
X002384Y010874D01*
X002533Y010874D01*
X002571Y010884D01*
X002605Y010904D01*
X002633Y010932D01*
X002653Y010966D01*
X002663Y011004D01*
X002663Y011231D01*
X002384Y011231D01*
X002384Y011289D01*
X002327Y011289D01*
X002327Y011646D01*
X002178Y011646D01*
X002140Y011636D01*
X002106Y011616D01*
X002078Y011588D01*
X002058Y011554D01*
X002048Y011516D01*
X002048Y011406D01*
X001991Y011545D01*
X001845Y011691D01*
X001702Y011750D01*
X001845Y011809D01*
X001991Y011955D01*
X002070Y012147D01*
X002070Y012353D01*
X001991Y012545D01*
X001845Y012691D01*
X001702Y012750D01*
X001845Y012809D01*
X001991Y012955D01*
X002070Y013147D01*
X002070Y013353D01*
X001991Y013545D01*
X001845Y013691D01*
X001698Y013751D01*
X001750Y013768D01*
X001823Y013805D01*
X001889Y013853D01*
X001947Y013911D01*
X001995Y013977D01*
X002032Y014050D01*
X002057Y014128D01*
X002069Y014200D01*
X001600Y014200D01*
X001600Y014300D01*
X002069Y014300D01*
X002057Y014372D01*
X002032Y014450D01*
X001995Y014523D01*
X001947Y014589D01*
X001889Y014647D01*
X001823Y014695D01*
X001750Y014732D01*
X001698Y014749D01*
X001845Y014809D01*
X001991Y014955D01*
X002018Y015020D01*
X002055Y015020D01*
X002820Y014255D01*
X002955Y014120D01*
X003755Y014120D01*
X004120Y013755D01*
X004120Y013150D01*
X003861Y013150D01*
X003861Y013802D01*
X003774Y013890D01*
X003019Y013890D01*
X002931Y013802D01*
X002931Y013150D01*
X002867Y013150D01*
X002750Y013033D01*
X002650Y012933D01*
X002650Y012892D01*
X002582Y012892D01*
X002494Y012804D01*
X002494Y012365D01*
X002582Y012277D01*
X003178Y012277D01*
X003266Y012365D01*
X003266Y012384D01*
X003338Y012384D01*
X003338Y012203D01*
X003426Y012116D01*
X003766Y012116D01*
X003787Y012136D01*
X003804Y012126D01*
X003842Y012116D01*
X003966Y012116D01*
X003966Y012498D01*
X003974Y012498D01*
X003974Y012116D01*
X004098Y012116D01*
X004136Y012126D01*
X004153Y012136D01*
X004174Y012116D01*
X004514Y012116D01*
X004602Y012203D01*
X004602Y012800D01*
X004580Y012822D01*
X004580Y013945D01*
X004445Y014080D01*
X003945Y014580D01*
X003145Y014580D01*
X002245Y015480D01*
X002018Y015480D01*
X001991Y015545D01*
X001935Y015600D01*
X002959Y015600D01*
X002942Y015569D01*
X002931Y015531D01*
X002931Y015286D01*
X003346Y015286D01*
X003346Y015186D01*
X002931Y015186D01*
X002931Y014940D01*
X002942Y014902D01*
X002961Y014868D01*
X002989Y014840D01*
X003024Y014820D01*
X003062Y014810D01*
X003346Y014810D01*
X003346Y015186D01*
X003446Y015186D01*
X003446Y014810D01*
X003731Y014810D01*
X003769Y014820D01*
X003804Y014840D01*
X003831Y014868D01*
X003851Y014902D01*
X003861Y014940D01*
X003861Y015186D01*
X003446Y015186D01*
X003446Y015286D01*
X003861Y015286D01*
X003861Y015531D01*
X003851Y015569D01*
X003833Y015600D01*
X006267Y015600D01*
X006249Y015569D01*
X006239Y015531D01*
X006239Y015286D01*
X006654Y015286D01*
X006654Y015186D01*
X006754Y015186D01*
X006754Y015286D01*
X007169Y015286D01*
X007169Y015531D01*
X007158Y015569D01*
X007141Y015600D01*
X008165Y015600D01*
X008109Y015545D01*
X008030Y015353D01*
X008030Y015147D01*
X008069Y015052D01*
X007917Y014900D01*
X007800Y014783D01*
X007800Y014183D01*
X007600Y013983D01*
X007600Y013083D01*
X007600Y013083D01*
X007450Y013233D01*
X007450Y013433D01*
X007333Y013550D01*
X007219Y013664D01*
X007169Y013664D01*
X007169Y013802D01*
X007081Y013890D01*
X006326Y013890D01*
X006239Y013802D01*
X006239Y013664D01*
X005821Y013664D01*
X005617Y013460D01*
X005500Y013343D01*
X005500Y012936D01*
X005451Y012936D01*
X005373Y012858D01*
X005368Y012862D01*
X005334Y012882D01*
X005296Y012892D01*
X005069Y012892D01*
X005069Y012613D01*
X005011Y012613D01*
X005011Y012556D01*
X004654Y012556D01*
X004654Y012407D01*
X004664Y012369D01*
X004684Y012335D01*
X004712Y012307D01*
X004746Y012287D01*
X004784Y012277D01*
X005011Y012277D01*
X005011Y012556D01*
X005069Y012556D01*
X005069Y012277D01*
X005296Y012277D01*
X005334Y012287D01*
X005363Y012304D01*
X005363Y012291D01*
X005419Y012235D01*
X005363Y012179D01*
X005363Y012158D01*
X005338Y012183D01*
X004742Y012183D01*
X004654Y012095D01*
X004654Y011708D01*
X004602Y011708D01*
X004602Y011777D01*
X004514Y011864D01*
X004174Y011864D01*
X004086Y011777D01*
X004086Y011702D01*
X003977Y011702D01*
X003854Y011580D01*
X003854Y011777D01*
X003766Y011864D01*
X003426Y011864D01*
X003338Y011777D01*
X003338Y011650D01*
X003267Y011650D01*
X003263Y011646D01*
X003248Y011646D01*
X003256Y011660D01*
X003266Y011698D01*
X003266Y011847D01*
X002909Y011847D01*
X002909Y011904D01*
X003266Y011904D01*
X003266Y012053D01*
X003256Y012091D01*
X003236Y012125D01*
X003208Y012153D01*
X003174Y012173D01*
X003136Y012183D01*
X002909Y012183D01*
X002909Y011904D01*
X002851Y011904D01*
X002851Y011847D01*
X002494Y011847D01*
X002494Y011698D01*
X002504Y011660D01*
X002512Y011646D01*
X002384Y011646D01*
X002384Y011289D01*
X002663Y011289D01*
X002663Y011516D01*
X002653Y011554D01*
X002645Y011568D01*
X002767Y011568D01*
X002757Y011558D01*
X002757Y010962D01*
X002845Y010874D01*
X002972Y010874D01*
X002898Y010800D01*
X003123Y010575D01*
X003055Y010507D01*
X002830Y010732D01*
X002711Y010613D01*
X002691Y010578D01*
X002681Y010540D01*
X002681Y010501D01*
X002691Y010463D01*
X002711Y010428D01*
X002844Y010296D01*
X003055Y010507D01*
X003123Y010438D01*
X002912Y010227D01*
X003045Y010094D01*
X003079Y010075D01*
X003118Y010064D01*
X003154Y010064D01*
X003154Y009985D01*
X003397Y009743D01*
X003397Y009641D01*
X003562Y009475D01*
X003480Y009394D01*
X003791Y009082D01*
X003791Y009082D01*
X004102Y008771D01*
X004022Y008691D01*
X004060Y008653D01*
X004060Y008580D01*
X004106Y008540D01*
X004258Y008540D01*
X004300Y008581D01*
X004340Y008626D01*
X004340Y008771D01*
X004313Y008800D01*
X004237Y008800D01*
X004184Y008853D01*
X004102Y008771D01*
X003791Y009082D01*
X003480Y009393D01*
X003396Y009309D01*
X003384Y009289D01*
X003376Y009289D01*
X003250Y009163D01*
X003250Y009743D01*
X003133Y009860D01*
X003004Y009989D01*
X002993Y009989D01*
X002984Y009996D01*
X002971Y010010D01*
X002969Y010010D01*
X002884Y010086D01*
X002871Y010100D01*
X002869Y010100D01*
X002868Y010101D01*
X002849Y010100D01*
X002229Y010100D01*
X002129Y010000D01*
X002100Y009971D01*
X002100Y008829D01*
X002200Y008729D01*
X002229Y008700D01*
X002567Y008700D01*
X002701Y008566D01*
X002701Y008490D01*
X003141Y008050D01*
X002721Y007630D01*
X002253Y007630D01*
X001959Y007924D01*
X001991Y007955D01*
X002070Y008147D01*
X002066Y008136D02*
X003055Y008136D01*
X003128Y008038D02*
X002025Y008038D01*
X001974Y007939D02*
X003030Y007939D01*
X002931Y007841D02*
X002042Y007841D01*
X002141Y007742D02*
X002833Y007742D01*
X002734Y007644D02*
X002239Y007644D01*
X002170Y007430D02*
X001550Y008050D01*
X001550Y008250D01*
X001757Y008727D02*
X002202Y008727D01*
X002100Y008700D02*
X002200Y008600D01*
X002540Y007800D01*
X002860Y007430D02*
X002170Y007430D01*
X002230Y006930D02*
X001550Y006250D01*
X001755Y005772D02*
X002600Y005772D01*
X002600Y005674D02*
X001852Y005674D01*
X001823Y005695D02*
X001750Y005732D01*
X001698Y005749D01*
X001845Y005809D01*
X001991Y005955D01*
X002070Y006147D01*
X002070Y006353D01*
X002031Y006448D01*
X002313Y006730D01*
X003207Y006730D01*
X002717Y006240D01*
X002600Y006123D01*
X002600Y003474D01*
X002068Y002950D01*
X002067Y002950D01*
X002009Y002892D01*
X001951Y002834D01*
X001951Y002833D01*
X001819Y002702D01*
X001698Y002751D01*
X001750Y002768D01*
X001823Y002805D01*
X001889Y002853D01*
X001947Y002911D01*
X001995Y002977D01*
X002032Y003050D01*
X002057Y003128D01*
X002069Y003200D01*
X001600Y003200D01*
X001600Y003300D01*
X001600Y003730D01*
X001500Y003730D01*
X001500Y003300D01*
X001600Y003300D01*
X002069Y003300D01*
X002057Y003372D01*
X002032Y003450D01*
X001995Y003523D01*
X001947Y003589D01*
X001889Y003647D01*
X001823Y003695D01*
X001750Y003732D01*
X001698Y003749D01*
X001845Y003809D01*
X001963Y003927D01*
X001991Y003899D01*
X002509Y003899D01*
X002597Y003987D01*
X002597Y004544D01*
X002541Y004600D01*
X002567Y004626D01*
X002587Y004660D01*
X002597Y004698D01*
X002597Y004886D01*
X002298Y004886D01*
X002298Y004983D01*
X002202Y004983D01*
X002202Y005301D01*
X002068Y005301D01*
X002057Y005372D01*
X002032Y005450D01*
X001995Y005523D01*
X001947Y005589D01*
X001889Y005647D01*
X001823Y005695D01*
X001957Y005575D02*
X002600Y005575D01*
X002600Y005477D02*
X002018Y005477D01*
X002055Y005378D02*
X002600Y005378D01*
X002600Y005280D02*
X002525Y005280D01*
X002539Y005271D02*
X002505Y005291D01*
X002467Y005301D01*
X002298Y005301D01*
X002298Y004983D01*
X002597Y004983D01*
X002597Y005171D01*
X002587Y005209D01*
X002567Y005243D01*
X002539Y005271D01*
X002594Y005181D02*
X002600Y005181D01*
X002597Y005083D02*
X002600Y005083D01*
X002597Y004984D02*
X002600Y004984D01*
X002510Y004950D02*
X002235Y004950D01*
X002250Y004935D01*
X002202Y004984D02*
X002298Y004984D01*
X002298Y005083D02*
X002202Y005083D01*
X002202Y005181D02*
X002298Y005181D01*
X002298Y005280D02*
X002202Y005280D01*
X002029Y005300D02*
X001995Y005291D01*
X001961Y005271D01*
X001933Y005243D01*
X001913Y005209D01*
X001911Y005200D01*
X001600Y005200D01*
X001600Y005300D01*
X002029Y005300D01*
X001975Y005280D02*
X001600Y005280D01*
X001550Y005250D02*
X001905Y005250D01*
X001906Y005871D02*
X002600Y005871D01*
X002600Y005969D02*
X001996Y005969D01*
X002037Y006068D02*
X002600Y006068D01*
X002643Y006166D02*
X002070Y006166D01*
X002070Y006265D02*
X002742Y006265D01*
X002840Y006363D02*
X002066Y006363D01*
X002044Y006462D02*
X002939Y006462D01*
X003037Y006560D02*
X002143Y006560D01*
X002241Y006659D02*
X003136Y006659D01*
X003260Y006930D02*
X002230Y006930D01*
X001630Y007180D02*
X001550Y007250D01*
X001630Y007180D02*
X003070Y007180D01*
X003313Y007423D01*
X003346Y007463D01*
X003547Y007217D02*
X003260Y006930D01*
X003547Y007217D02*
X003572Y007237D01*
X003781Y007021D02*
X002800Y006040D01*
X002800Y003390D01*
X002150Y002750D01*
X001650Y002250D01*
X001550Y002250D01*
X001778Y002719D02*
X001836Y002719D01*
X001839Y002817D02*
X001934Y002817D01*
X001950Y002916D02*
X002033Y002916D01*
X002013Y003014D02*
X002133Y003014D01*
X002052Y003113D02*
X002233Y003113D01*
X002333Y003211D02*
X001600Y003211D01*
X001550Y003250D02*
X001550Y003450D01*
X001500Y003408D02*
X001600Y003408D01*
X001600Y003310D02*
X001500Y003310D01*
X001500Y003507D02*
X001600Y003507D01*
X001600Y003605D02*
X001500Y003605D01*
X001500Y003704D02*
X001600Y003704D01*
X001805Y003704D02*
X002600Y003704D01*
X002600Y003802D02*
X001827Y003802D01*
X001936Y003901D02*
X001989Y003901D01*
X001970Y003870D02*
X002470Y003870D01*
X002600Y003980D01*
X002600Y004870D01*
X002510Y004950D01*
X002597Y004886D02*
X002600Y004886D01*
X002597Y004787D02*
X002600Y004787D01*
X002594Y004689D02*
X002600Y004689D01*
X002600Y004590D02*
X002551Y004590D01*
X002597Y004492D02*
X002600Y004492D01*
X002597Y004393D02*
X002600Y004393D01*
X002597Y004295D02*
X002600Y004295D01*
X002597Y004196D02*
X002600Y004196D01*
X002597Y004098D02*
X002600Y004098D01*
X002597Y003999D02*
X002600Y003999D01*
X002600Y003901D02*
X002511Y003901D01*
X002600Y003605D02*
X001930Y003605D01*
X002003Y003507D02*
X002600Y003507D01*
X002533Y003408D02*
X002045Y003408D01*
X002067Y003310D02*
X002433Y003310D01*
X002898Y002916D02*
X003502Y002916D01*
X003450Y002967D02*
X003641Y002776D01*
X003630Y002765D01*
X003630Y002335D01*
X003915Y002050D01*
X003630Y001765D01*
X003630Y001335D01*
X003935Y001030D01*
X004365Y001030D01*
X004650Y001315D01*
X004935Y001030D01*
X005365Y001030D01*
X005376Y001041D01*
X005517Y000900D01*
X001935Y000900D01*
X001991Y000955D01*
X002070Y001147D01*
X002070Y001353D01*
X002031Y001448D01*
X002350Y001767D01*
X002350Y002367D01*
X003200Y003217D01*
X003200Y005847D01*
X003653Y006300D01*
X003678Y006300D01*
X003668Y006290D01*
X003667Y006290D01*
X003609Y006232D01*
X003550Y006174D01*
X003550Y006173D01*
X003550Y006090D01*
X003550Y006008D01*
X003550Y005567D01*
X003667Y005450D01*
X005267Y003850D01*
X006367Y003850D01*
X007750Y002467D01*
X007750Y001667D01*
X007867Y001550D01*
X008040Y001377D01*
X008030Y001353D01*
X008030Y001147D01*
X008109Y000955D01*
X008165Y000900D01*
X007083Y000900D01*
X007504Y001321D01*
X007504Y001426D01*
X007591Y001512D01*
X007642Y001636D01*
X007642Y001771D01*
X007591Y001895D01*
X007496Y001990D01*
X007372Y002042D01*
X007237Y002042D01*
X007113Y001990D01*
X007018Y001895D01*
X006966Y001771D01*
X006966Y001636D01*
X007018Y001512D01*
X007074Y001456D01*
X006767Y001150D01*
X006485Y001150D01*
X006670Y001335D01*
X006670Y001765D01*
X006385Y002050D01*
X006670Y002335D01*
X006670Y002500D01*
X006200Y002500D01*
X006200Y002600D01*
X006100Y002600D01*
X006100Y003070D01*
X005935Y003070D01*
X005650Y002785D01*
X005365Y003070D01*
X004935Y003070D01*
X004650Y002785D01*
X004365Y003070D01*
X003935Y003070D01*
X003924Y003059D01*
X003850Y003133D01*
X003850Y003188D01*
X003948Y003188D01*
X004036Y003276D01*
X004036Y003361D01*
X004060Y003337D01*
X004095Y003317D01*
X004133Y003307D01*
X004281Y003307D01*
X004281Y003586D01*
X004339Y003586D01*
X004339Y003643D01*
X004617Y003643D01*
X004617Y003792D01*
X004607Y003830D01*
X004588Y003864D01*
X004560Y003892D01*
X004537Y003905D01*
X004617Y003986D01*
X004617Y004425D01*
X004530Y004513D01*
X004090Y004513D01*
X004019Y004441D01*
X003948Y004512D01*
X003352Y004512D01*
X003264Y004424D01*
X003264Y003985D01*
X003352Y003897D01*
X003900Y003897D01*
X003900Y003803D01*
X003352Y003803D01*
X003264Y003715D01*
X003264Y003276D01*
X003352Y003188D01*
X003450Y003188D01*
X003450Y002967D01*
X003450Y003014D02*
X002997Y003014D01*
X003095Y003113D02*
X003450Y003113D01*
X003329Y003211D02*
X003194Y003211D01*
X003200Y003310D02*
X003264Y003310D01*
X003264Y003408D02*
X003200Y003408D01*
X003200Y003507D02*
X003264Y003507D01*
X003264Y003605D02*
X003200Y003605D01*
X003200Y003704D02*
X003264Y003704D01*
X003200Y003802D02*
X003351Y003802D01*
X003348Y003901D02*
X003200Y003901D01*
X003200Y003999D02*
X003264Y003999D01*
X003264Y004098D02*
X003200Y004098D01*
X003200Y004196D02*
X003264Y004196D01*
X003264Y004295D02*
X003200Y004295D01*
X003200Y004393D02*
X003264Y004393D01*
X003200Y004492D02*
X003331Y004492D01*
X003200Y004590D02*
X004527Y004590D01*
X004551Y004492D02*
X004626Y004492D01*
X004617Y004393D02*
X004724Y004393D01*
X004823Y004295D02*
X004617Y004295D01*
X004617Y004196D02*
X004921Y004196D01*
X005020Y004098D02*
X004617Y004098D01*
X004617Y003999D02*
X005118Y003999D01*
X005217Y003901D02*
X004545Y003901D01*
X004615Y003802D02*
X006415Y003802D01*
X006514Y003704D02*
X004617Y003704D01*
X004617Y003586D02*
X004339Y003586D01*
X004339Y003307D01*
X004487Y003307D01*
X004525Y003317D01*
X004560Y003337D01*
X004588Y003365D01*
X004607Y003399D01*
X004617Y003437D01*
X004617Y003586D01*
X004617Y003507D02*
X006711Y003507D01*
X006612Y003605D02*
X004339Y003605D01*
X004339Y003507D02*
X004281Y003507D01*
X004281Y003408D02*
X004339Y003408D01*
X004339Y003310D02*
X004281Y003310D01*
X004496Y003310D02*
X006908Y003310D01*
X006809Y003408D02*
X004610Y003408D01*
X004510Y003290D02*
X004650Y003150D01*
X005550Y003150D01*
X006150Y002550D01*
X006200Y002522D02*
X007696Y002522D01*
X007750Y002423D02*
X006670Y002423D01*
X006660Y002325D02*
X007750Y002325D01*
X007750Y002226D02*
X006561Y002226D01*
X006463Y002128D02*
X007750Y002128D01*
X007750Y002029D02*
X007403Y002029D01*
X007206Y002029D02*
X006406Y002029D01*
X006505Y001931D02*
X007053Y001931D01*
X006992Y001832D02*
X006603Y001832D01*
X006670Y001734D02*
X006966Y001734D01*
X006967Y001635D02*
X006670Y001635D01*
X006670Y001537D02*
X007008Y001537D01*
X007055Y001438D02*
X006670Y001438D01*
X006670Y001340D02*
X006957Y001340D01*
X006858Y001241D02*
X006576Y001241D01*
X006850Y000950D02*
X007304Y001404D01*
X007304Y001704D01*
X007617Y001832D02*
X007750Y001832D01*
X007750Y001734D02*
X007642Y001734D01*
X007642Y001635D02*
X007782Y001635D01*
X007881Y001537D02*
X007601Y001537D01*
X007517Y001438D02*
X007979Y001438D01*
X008030Y001340D02*
X007504Y001340D01*
X007424Y001241D02*
X008030Y001241D01*
X008032Y001143D02*
X007325Y001143D01*
X007227Y001044D02*
X008072Y001044D01*
X008119Y000946D02*
X007128Y000946D01*
X006850Y000950D02*
X005750Y000950D01*
X005150Y001550D01*
X004822Y001143D02*
X004478Y001143D01*
X004576Y001241D02*
X004724Y001241D01*
X004921Y001044D02*
X004379Y001044D01*
X003921Y001044D02*
X002028Y001044D01*
X002068Y001143D02*
X003822Y001143D01*
X003724Y001241D02*
X002070Y001241D01*
X002070Y001340D02*
X003630Y001340D01*
X003630Y001438D02*
X002035Y001438D01*
X002119Y001537D02*
X003630Y001537D01*
X003630Y001635D02*
X002218Y001635D01*
X002316Y001734D02*
X003630Y001734D01*
X003697Y001832D02*
X002350Y001832D01*
X002350Y001931D02*
X003795Y001931D01*
X003894Y002029D02*
X002350Y002029D01*
X002350Y002128D02*
X003837Y002128D01*
X003739Y002226D02*
X002350Y002226D01*
X002350Y002325D02*
X003640Y002325D01*
X003630Y002423D02*
X002406Y002423D01*
X002504Y002522D02*
X003630Y002522D01*
X003630Y002620D02*
X002603Y002620D01*
X002701Y002719D02*
X003630Y002719D01*
X003600Y002817D02*
X002800Y002817D01*
X003000Y003300D02*
X002150Y002450D01*
X002150Y001850D01*
X001550Y001250D01*
X001981Y000946D02*
X005472Y000946D01*
X004150Y002550D02*
X003650Y003050D01*
X003650Y003496D01*
X003971Y003211D02*
X007006Y003211D01*
X007105Y003113D02*
X003870Y003113D01*
X004036Y003310D02*
X004124Y003310D01*
X004421Y003014D02*
X004879Y003014D01*
X004780Y002916D02*
X004520Y002916D01*
X004618Y002817D02*
X004682Y002817D01*
X005421Y003014D02*
X005879Y003014D01*
X005780Y002916D02*
X005520Y002916D01*
X005618Y002817D02*
X005682Y002817D01*
X006100Y002817D02*
X006200Y002817D01*
X006200Y002719D02*
X006100Y002719D01*
X006100Y002620D02*
X006200Y002620D01*
X006200Y002600D02*
X006200Y003070D01*
X006365Y003070D01*
X006670Y002765D01*
X006670Y002600D01*
X006200Y002600D01*
X006200Y002916D02*
X006100Y002916D01*
X006100Y003014D02*
X006200Y003014D01*
X006421Y003014D02*
X007203Y003014D01*
X007302Y002916D02*
X006520Y002916D01*
X006618Y002817D02*
X007400Y002817D01*
X007499Y002719D02*
X006670Y002719D01*
X006670Y002620D02*
X007597Y002620D01*
X007950Y002550D02*
X006450Y004050D01*
X005350Y004050D01*
X003750Y005650D01*
X003750Y006090D01*
X004237Y006572D01*
X004021Y006781D02*
X003740Y006500D01*
X003570Y006500D01*
X003000Y005930D01*
X003000Y003300D01*
X003650Y004204D02*
X004310Y004204D01*
X004310Y004205D01*
X004069Y004492D02*
X003969Y004492D01*
X004232Y004886D02*
X003200Y004886D01*
X003200Y004984D02*
X004133Y004984D01*
X004035Y005083D02*
X003200Y005083D01*
X003200Y005181D02*
X003936Y005181D01*
X003838Y005280D02*
X003200Y005280D01*
X003200Y005378D02*
X003739Y005378D01*
X003641Y005477D02*
X003200Y005477D01*
X003200Y005575D02*
X003550Y005575D01*
X003550Y005674D02*
X003200Y005674D01*
X003200Y005772D02*
X003550Y005772D01*
X003550Y005871D02*
X003223Y005871D01*
X003322Y005969D02*
X003550Y005969D01*
X003550Y006008D02*
X003550Y006008D01*
X003550Y006068D02*
X003420Y006068D01*
X003519Y006166D02*
X003550Y006166D01*
X003550Y006173D02*
X003550Y006173D01*
X003617Y006265D02*
X003642Y006265D01*
X004130Y006013D02*
X004090Y005900D01*
X004050Y005860D01*
X004050Y005650D01*
X005450Y004250D01*
X006550Y004250D01*
X008550Y002250D01*
X007950Y002550D02*
X007950Y001750D01*
X008450Y001250D01*
X008550Y001250D01*
X007750Y001931D02*
X007556Y001931D01*
X007850Y003250D02*
X008550Y003250D01*
X008050Y003550D02*
X007850Y003550D01*
X006750Y004650D01*
X005750Y004650D01*
X005450Y004950D01*
X005450Y006094D01*
X005418Y006127D01*
X005644Y006286D02*
X005704Y006276D01*
X005644Y006286D02*
X005644Y006336D01*
X005637Y006346D01*
X005963Y006019D01*
X006073Y005827D01*
X005834Y005575D02*
X005650Y005575D01*
X005650Y005477D02*
X005933Y005477D01*
X006025Y005384D02*
X006104Y005384D01*
X006104Y005348D01*
X006115Y005309D01*
X006134Y005275D01*
X006267Y005142D01*
X006478Y005353D01*
X006547Y005285D01*
X006615Y005353D01*
X006840Y005128D01*
X006959Y005247D01*
X006979Y005282D01*
X006989Y005320D01*
X006989Y005359D01*
X006979Y005397D01*
X006959Y005432D01*
X006826Y005564D01*
X006615Y005353D01*
X006547Y005422D01*
X006758Y005633D01*
X006741Y005650D01*
X008215Y005650D01*
X008157Y005593D01*
X008119Y005631D01*
X007601Y005631D01*
X007513Y005543D01*
X007513Y004986D01*
X007569Y004930D01*
X007543Y004904D01*
X007523Y004870D01*
X007513Y004832D01*
X007513Y004644D01*
X007812Y004644D01*
X007812Y004547D01*
X007908Y004547D01*
X007908Y004229D01*
X008030Y004229D01*
X008030Y004147D01*
X008109Y003955D01*
X008141Y003924D01*
X007967Y003750D01*
X007933Y003750D01*
X006950Y004733D01*
X006833Y004850D01*
X005833Y004850D01*
X005650Y005033D01*
X005650Y005737D01*
X005661Y005748D01*
X006025Y005384D01*
X006104Y005378D02*
X005650Y005378D01*
X005650Y005280D02*
X006132Y005280D01*
X006228Y005181D02*
X005650Y005181D01*
X005650Y005083D02*
X006344Y005083D01*
X006336Y005074D02*
X006468Y004941D01*
X006503Y004921D01*
X006541Y004911D01*
X006580Y004911D01*
X006618Y004921D01*
X006653Y004941D01*
X006772Y005060D01*
X006547Y005285D01*
X006336Y005074D01*
X006306Y005181D02*
X006443Y005181D01*
X006404Y005280D02*
X006541Y005280D01*
X006552Y005280D02*
X006689Y005280D01*
X006650Y005181D02*
X006787Y005181D01*
X006749Y005083D02*
X007513Y005083D01*
X007513Y005181D02*
X006893Y005181D01*
X006978Y005280D02*
X007513Y005280D01*
X007513Y005378D02*
X006984Y005378D01*
X006914Y005477D02*
X007513Y005477D01*
X007545Y005575D02*
X006700Y005575D01*
X006738Y005477D02*
X006601Y005477D01*
X006590Y005378D02*
X006640Y005378D01*
X006547Y005353D02*
X007305Y004595D01*
X007860Y004595D01*
X007908Y004590D02*
X008155Y004590D01*
X008112Y004547D02*
X008255Y004691D01*
X008398Y004750D01*
X008255Y004809D01*
X008197Y004867D01*
X008207Y004832D01*
X008207Y004644D01*
X007908Y004644D01*
X007908Y004547D01*
X008112Y004547D01*
X008207Y004689D02*
X008253Y004689D01*
X008207Y004787D02*
X008309Y004787D01*
X007908Y004492D02*
X007812Y004492D01*
X007812Y004547D02*
X007812Y004229D01*
X007643Y004229D01*
X007605Y004239D01*
X007571Y004259D01*
X007543Y004287D01*
X007523Y004321D01*
X007513Y004359D01*
X007513Y004547D01*
X007812Y004547D01*
X007812Y004590D02*
X007093Y004590D01*
X007191Y004492D02*
X007513Y004492D01*
X007513Y004393D02*
X007290Y004393D01*
X007388Y004295D02*
X007539Y004295D01*
X007487Y004196D02*
X008030Y004196D01*
X008050Y004098D02*
X007585Y004098D01*
X007684Y003999D02*
X008091Y003999D01*
X008118Y003901D02*
X007782Y003901D01*
X007881Y003802D02*
X008019Y003802D01*
X008050Y003550D02*
X008550Y004050D01*
X008550Y004250D01*
X007908Y004295D02*
X007812Y004295D01*
X007812Y004393D02*
X007908Y004393D01*
X007513Y004689D02*
X006994Y004689D01*
X006896Y004787D02*
X007513Y004787D01*
X007532Y004886D02*
X005797Y004886D01*
X005699Y004984D02*
X006425Y004984D01*
X006696Y004984D02*
X007515Y004984D01*
X007860Y005265D02*
X008535Y005265D01*
X008550Y005250D01*
X008150Y005850D02*
X006585Y005850D01*
X005863Y006572D01*
X006082Y006791D02*
X006724Y006150D01*
X007450Y006150D01*
X007635Y006335D01*
X007635Y006550D01*
X007786Y006203D02*
X007913Y006203D01*
X008001Y006291D01*
X008001Y006809D01*
X007913Y006897D01*
X007480Y006897D01*
X007950Y007367D01*
X007950Y007767D01*
X008124Y007941D01*
X008255Y007809D01*
X008402Y007749D01*
X008350Y007732D01*
X008277Y007695D01*
X008211Y007647D01*
X008153Y007589D01*
X008105Y007523D01*
X008068Y007450D01*
X008043Y007372D01*
X008031Y007300D01*
X008500Y007300D01*
X008500Y007200D01*
X008031Y007200D01*
X008043Y007128D01*
X008068Y007050D01*
X008105Y006977D01*
X008153Y006911D01*
X008211Y006853D01*
X008277Y006805D01*
X008350Y006768D01*
X008402Y006751D01*
X008255Y006691D01*
X008109Y006545D01*
X008030Y006353D01*
X008030Y006147D01*
X008069Y006052D01*
X008067Y006050D01*
X007633Y006050D01*
X007650Y006067D01*
X007786Y006203D01*
X007749Y006166D02*
X008030Y006166D01*
X008030Y006265D02*
X007975Y006265D01*
X008001Y006363D02*
X008034Y006363D01*
X008001Y006462D02*
X008075Y006462D01*
X008125Y006560D02*
X008001Y006560D01*
X008001Y006659D02*
X008223Y006659D01*
X008384Y006757D02*
X008001Y006757D01*
X007955Y006856D02*
X008209Y006856D01*
X008122Y006954D02*
X007537Y006954D01*
X007635Y007053D02*
X008067Y007053D01*
X008039Y007151D02*
X007734Y007151D01*
X007832Y007250D02*
X008500Y007250D01*
X008208Y007644D02*
X007950Y007644D01*
X007950Y007742D02*
X008382Y007742D01*
X008224Y007841D02*
X008023Y007841D01*
X008122Y007939D02*
X008126Y007939D01*
X008150Y008250D02*
X007750Y007850D01*
X007750Y007450D01*
X007250Y006950D01*
X006815Y006950D01*
X006528Y007237D01*
X006309Y007018D02*
X006279Y007041D01*
X005910Y007410D01*
X005550Y007050D01*
X005470Y007070D01*
X005623Y006954D02*
X005312Y006954D01*
X005410Y006856D02*
X005524Y006856D01*
X005467Y006798D02*
X005170Y007096D01*
X005170Y008000D01*
X004722Y008449D01*
X004740Y008467D01*
X004740Y008474D01*
X004745Y008479D01*
X004740Y008556D01*
X004740Y008847D01*
X004743Y008926D01*
X004740Y008929D01*
X004740Y008933D01*
X004684Y008989D01*
X004600Y009079D01*
X004600Y009083D01*
X004544Y009139D01*
X004508Y009177D01*
X004548Y009217D01*
X004633Y009301D01*
X004648Y009328D01*
X004660Y009328D01*
X004879Y009548D01*
X005050Y009719D01*
X005221Y009548D01*
X005440Y009328D01*
X005553Y009215D01*
X005508Y009197D01*
X005413Y009102D01*
X005362Y008977D01*
X005362Y008843D01*
X005413Y008718D01*
X005508Y008623D01*
X005633Y008572D01*
X005767Y008572D01*
X005892Y008623D01*
X005987Y008718D01*
X006005Y008763D01*
X006112Y008657D01*
X006331Y008437D01*
X006548Y008221D01*
X006719Y008050D01*
X006548Y007879D01*
X006548Y007879D01*
X006328Y007660D01*
X006102Y007433D01*
X006102Y007425D01*
X006082Y007413D01*
X005998Y007329D01*
X006309Y007018D01*
X006309Y007018D01*
X006776Y006550D01*
X006965Y006550D01*
X006917Y006560D02*
X006597Y006560D01*
X006599Y006598D02*
X006917Y006598D01*
X006917Y006502D01*
X006655Y006502D01*
X006535Y006622D01*
X006535Y006622D01*
X006599Y006686D01*
X006599Y006598D01*
X006599Y006659D02*
X006572Y006659D01*
X006309Y007018D02*
X005998Y007329D01*
X005913Y007244D01*
X005897Y007217D01*
X005886Y007217D01*
X005657Y006988D01*
X005467Y006798D01*
X005213Y007053D02*
X005721Y007053D01*
X005820Y007151D02*
X005170Y007151D01*
X005170Y007250D02*
X005918Y007250D01*
X006017Y007348D02*
X005170Y007348D01*
X005170Y007447D02*
X006115Y007447D01*
X006214Y007545D02*
X005170Y007545D01*
X005170Y007644D02*
X006312Y007644D01*
X006328Y007660D02*
X006328Y007660D01*
X006411Y007742D02*
X005170Y007742D01*
X005170Y007841D02*
X006509Y007841D01*
X006608Y007939D02*
X005170Y007939D01*
X005133Y008038D02*
X006706Y008038D01*
X006633Y008136D02*
X005034Y008136D01*
X004936Y008235D02*
X006534Y008235D01*
X006548Y008221D02*
X006548Y008221D01*
X006436Y008333D02*
X004837Y008333D01*
X004739Y008432D02*
X006337Y008432D01*
X006239Y008530D02*
X004742Y008530D01*
X004740Y008629D02*
X005503Y008629D01*
X005410Y008727D02*
X004740Y008727D01*
X004740Y008826D02*
X005369Y008826D01*
X005362Y008924D02*
X004743Y008924D01*
X004653Y009023D02*
X005381Y009023D01*
X005433Y009121D02*
X004562Y009121D01*
X004548Y009217D02*
X004237Y009528D01*
X004548Y009217D01*
X004551Y009220D02*
X005549Y009220D01*
X005451Y009318D02*
X004642Y009318D01*
X004545Y009220D02*
X004545Y009220D01*
X004540Y009220D02*
X004790Y009180D01*
X005720Y008240D01*
X005720Y007600D01*
X005910Y007410D01*
X006077Y007250D02*
X006077Y007250D01*
X006175Y007151D02*
X006175Y007151D01*
X006274Y007053D02*
X006274Y007053D01*
X006754Y007446D02*
X006754Y007463D01*
X006775Y007463D01*
X007017Y007205D01*
X007193Y007201D01*
X007550Y007550D01*
X007550Y008050D01*
X008550Y009050D01*
X008550Y009250D01*
X008000Y009470D02*
X008000Y008850D01*
X006893Y007743D01*
X006973Y007682D01*
X006973Y008418D02*
X006993Y008433D01*
X007800Y009240D01*
X007800Y009600D01*
X008000Y009800D01*
X008000Y010600D01*
X008450Y011050D01*
X008450Y011150D01*
X008550Y011250D01*
X008000Y010900D02*
X008000Y011700D01*
X008550Y012250D01*
X008000Y012000D02*
X008000Y012600D01*
X008450Y013050D01*
X008450Y013150D01*
X008550Y013250D01*
X008000Y012910D02*
X008000Y013600D01*
X008450Y014050D01*
X008450Y014150D01*
X008550Y014250D01*
X008000Y014100D02*
X008000Y014700D01*
X008550Y015250D01*
X008030Y015228D02*
X006754Y015228D01*
X006754Y015186D02*
X007169Y015186D01*
X007169Y014940D01*
X007158Y014902D01*
X007139Y014868D01*
X007111Y014840D01*
X007076Y014820D01*
X007038Y014810D01*
X006754Y014810D01*
X006754Y015186D01*
X006754Y015130D02*
X006654Y015130D01*
X006654Y015186D02*
X006654Y014810D01*
X006369Y014810D01*
X006331Y014820D01*
X006296Y014840D01*
X006269Y014868D01*
X006249Y014902D01*
X006239Y014940D01*
X006239Y015186D01*
X006654Y015186D01*
X006654Y015228D02*
X003446Y015228D01*
X003446Y015130D02*
X003346Y015130D01*
X003346Y015228D02*
X002497Y015228D01*
X002399Y015327D02*
X002931Y015327D01*
X002931Y015425D02*
X002300Y015425D01*
X002000Y015524D02*
X002931Y015524D01*
X002931Y015130D02*
X002596Y015130D01*
X002694Y015031D02*
X002931Y015031D01*
X002934Y014933D02*
X002793Y014933D01*
X002891Y014834D02*
X003000Y014834D01*
X002990Y014736D02*
X006286Y014736D01*
X006326Y014776D02*
X006239Y014688D01*
X006239Y014012D01*
X006326Y013924D01*
X007081Y013924D01*
X007169Y014012D01*
X007169Y014688D01*
X007081Y014776D01*
X006326Y014776D01*
X006307Y014834D02*
X003793Y014834D01*
X003859Y014933D02*
X006241Y014933D01*
X006239Y015031D02*
X003861Y015031D01*
X003861Y015130D02*
X006239Y015130D01*
X006239Y015327D02*
X003861Y015327D01*
X003861Y015425D02*
X006239Y015425D01*
X006239Y015524D02*
X003861Y015524D01*
X003446Y015031D02*
X003346Y015031D01*
X003346Y014933D02*
X003446Y014933D01*
X003446Y014834D02*
X003346Y014834D01*
X003088Y014637D02*
X006239Y014637D01*
X006239Y014539D02*
X003987Y014539D01*
X004085Y014440D02*
X006239Y014440D01*
X006239Y014342D02*
X004184Y014342D01*
X004282Y014243D02*
X006239Y014243D01*
X006239Y014145D02*
X004381Y014145D01*
X004479Y014046D02*
X006239Y014046D01*
X006303Y013948D02*
X004578Y013948D01*
X004580Y013849D02*
X006286Y013849D01*
X006239Y013751D02*
X004580Y013751D01*
X004580Y013652D02*
X005809Y013652D01*
X005711Y013554D02*
X004580Y013554D01*
X004580Y013455D02*
X005612Y013455D01*
X005514Y013357D02*
X004580Y013357D01*
X004580Y013258D02*
X005500Y013258D01*
X005500Y013160D02*
X004580Y013160D01*
X004580Y013061D02*
X005500Y013061D01*
X005500Y012963D02*
X004580Y012963D01*
X004580Y012864D02*
X004715Y012864D01*
X004712Y012862D02*
X004684Y012834D01*
X004664Y012800D01*
X004654Y012762D01*
X004654Y012613D01*
X005011Y012613D01*
X005011Y012892D01*
X004784Y012892D01*
X004746Y012882D01*
X004712Y012862D01*
X004655Y012766D02*
X004602Y012766D01*
X004602Y012667D02*
X004654Y012667D01*
X004602Y012569D02*
X005011Y012569D01*
X005040Y012584D02*
X005050Y012594D01*
X005050Y014450D01*
X005836Y015236D01*
X006704Y015236D01*
X006654Y015031D02*
X006754Y015031D01*
X006754Y014933D02*
X006654Y014933D01*
X006654Y014834D02*
X006754Y014834D01*
X007100Y014834D02*
X007851Y014834D01*
X007917Y014900D02*
X007917Y014900D01*
X007950Y014933D02*
X007166Y014933D01*
X007169Y015031D02*
X008048Y015031D01*
X008037Y015130D02*
X007169Y015130D01*
X007169Y015327D02*
X008030Y015327D01*
X008060Y015425D02*
X007169Y015425D01*
X007169Y015524D02*
X008100Y015524D01*
X007800Y014736D02*
X007121Y014736D01*
X007169Y014637D02*
X007800Y014637D01*
X007800Y014539D02*
X007169Y014539D01*
X007169Y014440D02*
X007800Y014440D01*
X007800Y014342D02*
X007169Y014342D01*
X007169Y014243D02*
X007800Y014243D01*
X007762Y014145D02*
X007169Y014145D01*
X007169Y014046D02*
X007663Y014046D01*
X007600Y013948D02*
X007104Y013948D01*
X007121Y013849D02*
X007600Y013849D01*
X007600Y013751D02*
X007169Y013751D01*
X007231Y013652D02*
X007600Y013652D01*
X007600Y013554D02*
X007329Y013554D01*
X007428Y013455D02*
X007600Y013455D01*
X007600Y013357D02*
X007450Y013357D01*
X007450Y013258D02*
X007600Y013258D01*
X007600Y013160D02*
X007523Y013160D01*
X007250Y013150D02*
X007600Y012800D01*
X007800Y013000D01*
X007800Y013900D01*
X008000Y014100D01*
X007250Y013350D02*
X007250Y013150D01*
X007250Y013350D02*
X007136Y013464D01*
X006704Y013464D01*
X005904Y013464D01*
X005700Y013260D01*
X005700Y012610D01*
X005710Y012570D01*
X006057Y012569D02*
X006859Y012569D01*
X006863Y012558D02*
X006869Y012552D01*
X006417Y012100D01*
X006057Y012100D01*
X006057Y012179D01*
X006001Y012235D01*
X006057Y012291D01*
X006057Y012848D01*
X005969Y012936D01*
X005900Y012936D01*
X005900Y013177D01*
X005987Y013264D01*
X006239Y013264D01*
X006239Y013126D01*
X006326Y013039D01*
X006963Y013039D01*
X006958Y013037D01*
X006863Y012942D01*
X006812Y012817D01*
X006812Y012683D01*
X006863Y012558D01*
X006787Y012470D02*
X006057Y012470D01*
X006057Y012372D02*
X006689Y012372D01*
X006590Y012273D02*
X006039Y012273D01*
X006057Y012175D02*
X006492Y012175D01*
X006500Y011900D02*
X007150Y012550D01*
X007150Y012750D01*
X006884Y012963D02*
X005900Y012963D01*
X005900Y013061D02*
X006304Y013061D01*
X006239Y013160D02*
X005900Y013160D01*
X005981Y013258D02*
X006239Y013258D01*
X006041Y012864D02*
X006831Y012864D01*
X006812Y012766D02*
X006057Y012766D01*
X006057Y012667D02*
X006818Y012667D01*
X007400Y012000D02*
X007600Y012200D01*
X007600Y012800D01*
X007800Y012710D02*
X008000Y012910D01*
X007800Y012710D02*
X007800Y012100D01*
X007600Y011900D01*
X007600Y011100D01*
X007400Y010900D01*
X007400Y010180D01*
X006319Y009099D01*
X006309Y009082D01*
X006543Y008883D02*
X007350Y009690D01*
X007350Y009750D01*
X007600Y010000D01*
X007600Y010800D01*
X007800Y011000D01*
X007800Y011800D01*
X008000Y012000D01*
X007400Y012000D02*
X007400Y011210D01*
X007200Y011010D01*
X007200Y010440D01*
X006282Y009512D01*
X006082Y009309D01*
X006082Y009282D01*
X005700Y008910D01*
X005897Y008629D02*
X006140Y008629D01*
X006042Y008727D02*
X005990Y008727D01*
X006528Y008863D02*
X006543Y008883D01*
X006754Y008637D02*
X006764Y008644D01*
X007600Y009480D01*
X007600Y009700D01*
X007800Y009900D01*
X007800Y010700D01*
X008000Y010900D01*
X008550Y010250D02*
X008550Y010050D01*
X008000Y009470D01*
X008150Y008250D02*
X008550Y008250D01*
X008122Y007545D02*
X007950Y007545D01*
X007950Y007447D02*
X008067Y007447D01*
X008039Y007348D02*
X007931Y007348D01*
X008550Y006250D02*
X008150Y005850D01*
X008063Y006068D02*
X007650Y006068D01*
X006650Y004450D02*
X007850Y003250D01*
X006650Y004450D02*
X005550Y004450D01*
X004450Y005550D01*
X004450Y005894D01*
X004682Y006127D01*
X004682Y006118D01*
X004463Y006346D02*
X004130Y006013D01*
X004650Y005741D02*
X005050Y006141D01*
X005250Y005941D01*
X005250Y005033D01*
X004650Y005633D01*
X004650Y005741D01*
X004681Y005772D02*
X005250Y005772D01*
X005250Y005674D02*
X004650Y005674D01*
X004708Y005575D02*
X005250Y005575D01*
X005250Y005477D02*
X004806Y005477D01*
X004905Y005378D02*
X005250Y005378D01*
X005250Y005280D02*
X005003Y005280D01*
X005102Y005181D02*
X005250Y005181D01*
X005250Y005083D02*
X005200Y005083D01*
X005650Y005674D02*
X005736Y005674D01*
X005250Y005871D02*
X004780Y005871D01*
X004878Y005969D02*
X005222Y005969D01*
X005123Y006068D02*
X004977Y006068D01*
X005050Y006381D02*
X004879Y006552D01*
X004660Y006772D01*
X004433Y006998D01*
X004214Y007217D01*
X003988Y007443D01*
X003769Y007663D01*
X003552Y007879D01*
X003381Y008050D01*
X003552Y008221D01*
X003698Y008366D01*
X003723Y008344D01*
X003777Y008290D01*
X003784Y008290D01*
X003893Y008194D01*
X003947Y008140D01*
X003954Y008140D01*
X003960Y008135D01*
X004036Y008140D01*
X004339Y008140D01*
X004421Y008139D01*
X004422Y008140D01*
X004423Y008140D01*
X004444Y008161D01*
X004770Y007835D01*
X004770Y007096D01*
X004770Y006930D01*
X005184Y006516D01*
X005050Y006381D01*
X004970Y006462D02*
X005130Y006462D01*
X005140Y006560D02*
X004871Y006560D01*
X004879Y006552D02*
X004879Y006552D01*
X004773Y006659D02*
X005041Y006659D01*
X004943Y006757D02*
X004674Y006757D01*
X004576Y006856D02*
X004844Y006856D01*
X004770Y006954D02*
X004477Y006954D01*
X004379Y007053D02*
X004770Y007053D01*
X004770Y007151D02*
X004280Y007151D01*
X004182Y007250D02*
X004770Y007250D01*
X004770Y007348D02*
X004083Y007348D01*
X003985Y007447D02*
X004770Y007447D01*
X004770Y007545D02*
X003886Y007545D01*
X003788Y007644D02*
X004770Y007644D01*
X004770Y007742D02*
X003689Y007742D01*
X003591Y007841D02*
X004764Y007841D01*
X004666Y007939D02*
X003492Y007939D01*
X003552Y007879D02*
X003552Y007879D01*
X003394Y008038D02*
X004567Y008038D01*
X004469Y008136D02*
X003973Y008136D01*
X003959Y008136D02*
X003467Y008136D01*
X003552Y008221D02*
X003552Y008221D01*
X003566Y008235D02*
X003847Y008235D01*
X003734Y008333D02*
X003664Y008333D01*
X003860Y008490D02*
X004030Y008340D01*
X004340Y008340D01*
X004445Y008443D01*
X004970Y007917D01*
X004970Y007013D01*
X005637Y006346D01*
X004330Y004787D02*
X003200Y004787D01*
X003200Y004689D02*
X004429Y004689D01*
X004021Y006781D02*
X004018Y006791D01*
X003791Y007018D02*
X003781Y007021D01*
X003127Y007682D02*
X003122Y007682D01*
X002860Y007430D01*
X002858Y008333D02*
X002070Y008333D01*
X002038Y008432D02*
X002759Y008432D01*
X002701Y008530D02*
X001997Y008530D01*
X001907Y008629D02*
X002639Y008629D01*
X003050Y008943D02*
X003346Y008637D01*
X003572Y008828D02*
X003642Y008788D01*
X003860Y008570D01*
X003860Y008490D01*
X004060Y008629D02*
X004340Y008629D01*
X004340Y008727D02*
X004058Y008727D01*
X004048Y008826D02*
X004048Y008826D01*
X004157Y008826D02*
X004212Y008826D01*
X004190Y008680D02*
X003808Y009062D01*
X003791Y009082D01*
X003791Y009082D01*
X003771Y009089D01*
X003510Y009350D01*
X003350Y009350D01*
X003230Y009470D01*
X003230Y009890D01*
X003020Y010100D01*
X003033Y010106D02*
X002053Y010106D01*
X002070Y010205D02*
X002935Y010205D01*
X002988Y010303D02*
X002851Y010303D01*
X002836Y010303D02*
X002070Y010303D01*
X002050Y010402D02*
X002738Y010402D01*
X002681Y010500D02*
X002009Y010500D01*
X001937Y010599D02*
X002703Y010599D01*
X002795Y010697D02*
X001830Y010697D01*
X001812Y010796D02*
X002903Y010796D01*
X002850Y010750D02*
X002356Y010750D01*
X002356Y010656D01*
X002100Y010400D01*
X002100Y009415D01*
X002567Y009415D01*
X002567Y009789D02*
X002921Y009789D01*
X003050Y009660D01*
X003050Y008943D01*
X003250Y009220D02*
X003306Y009220D01*
X003250Y009318D02*
X003405Y009318D01*
X003503Y009417D02*
X003250Y009417D01*
X003250Y009515D02*
X003522Y009515D01*
X003424Y009614D02*
X003250Y009614D01*
X003250Y009712D02*
X003397Y009712D01*
X003329Y009811D02*
X003182Y009811D01*
X003230Y009909D02*
X003084Y009909D01*
X003154Y010008D02*
X002973Y010008D01*
X002950Y010402D02*
X003087Y010402D01*
X003061Y010500D02*
X003048Y010500D01*
X003093Y010507D02*
X002850Y010750D01*
X002864Y010697D02*
X003001Y010697D01*
X002963Y010599D02*
X003100Y010599D01*
X003123Y010575D02*
X003334Y010786D01*
X003247Y010874D01*
X003284Y010874D01*
X003372Y010962D01*
X003372Y011146D01*
X003426Y011092D01*
X003720Y011092D01*
X003720Y010495D01*
X003673Y010448D01*
X003645Y010476D01*
X003566Y010476D01*
X003566Y010512D01*
X003555Y010551D01*
X003536Y010585D01*
X003403Y010718D01*
X003192Y010507D01*
X003123Y010575D01*
X003147Y010599D02*
X003284Y010599D01*
X003245Y010697D02*
X003382Y010697D01*
X003423Y010697D02*
X003720Y010697D01*
X003720Y010599D02*
X003522Y010599D01*
X003566Y010500D02*
X003720Y010500D01*
X003720Y010796D02*
X003325Y010796D01*
X003304Y010894D02*
X003720Y010894D01*
X003720Y010993D02*
X003372Y010993D01*
X003372Y011091D02*
X003720Y011091D01*
X003596Y011479D02*
X003605Y011487D01*
X003615Y011494D01*
X003626Y011499D01*
X003638Y011501D01*
X003650Y011501D01*
X003596Y011478D02*
X003568Y011450D01*
X003350Y011450D01*
X003160Y011260D01*
X003064Y011260D01*
X002757Y011288D02*
X002384Y011288D01*
X002356Y011260D02*
X002356Y010750D01*
X002327Y010894D02*
X002384Y010894D01*
X002384Y010993D02*
X002327Y010993D01*
X002327Y011091D02*
X002384Y011091D01*
X002384Y011190D02*
X002327Y011190D01*
X002327Y011387D02*
X002384Y011387D01*
X002384Y011485D02*
X002327Y011485D01*
X002327Y011584D02*
X002384Y011584D01*
X002498Y011682D02*
X001853Y011682D01*
X001775Y011781D02*
X002494Y011781D01*
X002494Y011904D02*
X002851Y011904D01*
X002851Y012183D01*
X002624Y012183D01*
X002586Y012173D01*
X002552Y012153D01*
X002524Y012125D01*
X002504Y012091D01*
X002494Y012053D01*
X002494Y011904D01*
X002494Y011978D02*
X002000Y011978D01*
X002041Y012076D02*
X002500Y012076D01*
X002592Y012175D02*
X002070Y012175D01*
X002070Y012273D02*
X003338Y012273D01*
X003338Y012372D02*
X003266Y012372D01*
X003168Y012175D02*
X003367Y012175D01*
X003350Y012050D02*
X003950Y012050D01*
X003970Y012070D01*
X003970Y012502D01*
X003966Y012470D02*
X003974Y012470D01*
X003966Y012372D02*
X003974Y012372D01*
X003966Y012273D02*
X003974Y012273D01*
X003966Y012175D02*
X003974Y012175D01*
X003950Y012050D02*
X004550Y012050D01*
X004650Y012150D01*
X004650Y012450D01*
X004654Y012470D02*
X004602Y012470D01*
X004602Y012372D02*
X004663Y012372D01*
X004602Y012273D02*
X005381Y012273D01*
X005363Y012175D02*
X005347Y012175D01*
X005069Y012372D02*
X005011Y012372D01*
X005011Y012470D02*
X005069Y012470D01*
X005069Y012667D02*
X005011Y012667D01*
X005011Y012766D02*
X005069Y012766D01*
X005069Y012864D02*
X005011Y012864D01*
X005365Y012864D02*
X005379Y012864D01*
X004733Y012175D02*
X004573Y012175D01*
X004654Y012076D02*
X003260Y012076D01*
X003350Y012050D02*
X003176Y011876D01*
X002880Y011876D01*
X002909Y011879D02*
X004654Y011879D01*
X004654Y011781D02*
X004598Y011781D01*
X004654Y011978D02*
X003266Y011978D01*
X003266Y011781D02*
X003342Y011781D01*
X003338Y011682D02*
X003262Y011682D01*
X002851Y011879D02*
X001914Y011879D01*
X001952Y011584D02*
X002075Y011584D01*
X002048Y011485D02*
X002015Y011485D01*
X002047Y011091D02*
X002048Y011091D01*
X002051Y010993D02*
X002006Y010993D01*
X001929Y010894D02*
X002123Y010894D01*
X002588Y010894D02*
X002824Y010894D01*
X002757Y010993D02*
X002660Y010993D01*
X002663Y011091D02*
X002757Y011091D01*
X002757Y011190D02*
X002663Y011190D01*
X002663Y011387D02*
X002757Y011387D01*
X002757Y011485D02*
X002663Y011485D01*
X002851Y011978D02*
X002909Y011978D01*
X002909Y012076D02*
X002851Y012076D01*
X002851Y012175D02*
X002909Y012175D01*
X002880Y012584D02*
X002850Y012584D01*
X002850Y012850D01*
X002950Y012950D01*
X004350Y012950D01*
X004350Y013000D02*
X004350Y013050D01*
X004120Y013160D02*
X003861Y013160D01*
X003861Y013258D02*
X004120Y013258D01*
X004120Y013357D02*
X003861Y013357D01*
X003861Y013455D02*
X004120Y013455D01*
X004120Y013554D02*
X003861Y013554D01*
X003861Y013652D02*
X004120Y013652D01*
X004120Y013751D02*
X003861Y013751D01*
X003814Y013849D02*
X004026Y013849D01*
X003927Y013948D02*
X001973Y013948D01*
X002030Y014046D02*
X003829Y014046D01*
X002979Y013849D02*
X001883Y013849D01*
X001883Y013652D02*
X002931Y013652D01*
X002931Y013554D02*
X001982Y013554D01*
X002028Y013455D02*
X002931Y013455D01*
X002931Y013357D02*
X002069Y013357D01*
X002070Y013258D02*
X002931Y013258D01*
X002931Y013160D02*
X002070Y013160D01*
X002035Y013061D02*
X002778Y013061D01*
X002680Y012963D02*
X001994Y012963D01*
X001899Y012864D02*
X002554Y012864D01*
X002494Y012766D02*
X001739Y012766D01*
X001868Y012667D02*
X002494Y012667D01*
X002494Y012569D02*
X001967Y012569D01*
X002022Y012470D02*
X002494Y012470D01*
X002494Y012372D02*
X002063Y012372D01*
X002880Y012584D02*
X003596Y012584D01*
X003596Y012502D01*
X003850Y011781D02*
X004090Y011781D01*
X003957Y011682D02*
X003854Y011682D01*
X003854Y011584D02*
X003858Y011584D01*
X004344Y011478D02*
X004350Y011472D01*
X004602Y011248D02*
X004602Y011180D01*
X004514Y011092D01*
X004180Y011092D01*
X004180Y010463D01*
X004235Y010518D01*
X004212Y010573D01*
X004212Y010707D01*
X004263Y010832D01*
X004358Y010927D01*
X004483Y010978D01*
X004617Y010978D01*
X004742Y010927D01*
X004837Y010832D01*
X004888Y010707D01*
X004888Y010606D01*
X004893Y010608D01*
X005027Y010608D01*
X005152Y010557D01*
X005247Y010462D01*
X005298Y010337D01*
X005298Y010207D01*
X005490Y010399D01*
X005559Y010399D01*
X005674Y010515D01*
X005558Y010563D01*
X005463Y010658D01*
X005412Y010783D01*
X005412Y010917D01*
X005455Y011020D01*
X005227Y011248D01*
X004602Y011248D01*
X004602Y011190D02*
X005285Y011190D01*
X005384Y011091D02*
X004180Y011091D01*
X004180Y010993D02*
X005443Y010993D01*
X005412Y010894D02*
X004774Y010894D01*
X004852Y010796D02*
X005412Y010796D01*
X005447Y010697D02*
X004888Y010697D01*
X005050Y010599D02*
X005523Y010599D01*
X005659Y010500D02*
X005208Y010500D01*
X005271Y010402D02*
X005561Y010402D01*
X005394Y010303D02*
X005298Y010303D01*
X005443Y010013D02*
X005443Y010003D01*
X005418Y009973D01*
X006020Y010580D01*
X006210Y010770D01*
X006210Y011480D01*
X006500Y011900D02*
X005710Y011900D01*
X005720Y011876D01*
X005040Y011876D01*
X005040Y011478D01*
X004326Y010894D02*
X004180Y010894D01*
X004180Y010796D02*
X004248Y010796D01*
X004212Y010697D02*
X004180Y010697D01*
X004180Y010599D02*
X004212Y010599D01*
X004217Y010500D02*
X004180Y010500D01*
X004190Y010190D02*
X004550Y010550D01*
X004550Y010640D01*
X004960Y010270D02*
X004682Y009992D01*
X004682Y009973D01*
X004463Y009754D02*
X004446Y009754D01*
X004190Y010020D01*
X004190Y010190D01*
X004004Y009923D02*
X004007Y009920D01*
X003926Y009839D01*
X004237Y009528D01*
X004237Y009528D01*
X004237Y009528D01*
X004252Y009508D01*
X004540Y009220D01*
X004447Y009318D02*
X004447Y009318D01*
X004348Y009417D02*
X004348Y009417D01*
X004250Y009515D02*
X004250Y009515D01*
X004237Y009528D02*
X003926Y009839D01*
X003845Y009758D01*
X003842Y009761D01*
X004004Y009923D01*
X003996Y009909D02*
X003991Y009909D01*
X003954Y009811D02*
X003954Y009811D01*
X003897Y009811D02*
X003892Y009811D01*
X004053Y009712D02*
X004053Y009712D01*
X004151Y009614D02*
X004151Y009614D01*
X004001Y009319D02*
X004320Y009000D01*
X004400Y009000D01*
X004540Y008850D01*
X004540Y008550D01*
X004445Y008443D01*
X003950Y008924D02*
X003950Y008924D01*
X003851Y009023D02*
X003851Y009023D01*
X003753Y009121D02*
X003753Y009121D01*
X003654Y009220D02*
X003654Y009220D01*
X003556Y009318D02*
X003556Y009318D01*
X003597Y009723D02*
X003597Y010033D01*
X003617Y010067D01*
X003597Y009723D02*
X004001Y009319D01*
X004018Y009309D01*
X003572Y008928D02*
X003572Y008863D01*
X003572Y008828D01*
X004748Y009417D02*
X005352Y009417D01*
X005254Y009515D02*
X004846Y009515D01*
X004879Y009548D02*
X004879Y009548D01*
X004945Y009614D02*
X005155Y009614D01*
X005221Y009548D02*
X005221Y009548D01*
X005057Y009712D02*
X005043Y009712D01*
X005637Y009754D02*
X005654Y009774D01*
X006610Y010730D01*
X006610Y010990D01*
X006950Y010610D02*
X006950Y011850D01*
X006950Y010610D02*
X005908Y009568D01*
X005863Y009528D01*
X003123Y010507D02*
X003093Y010507D01*
X002137Y010008D02*
X002012Y010008D01*
X001944Y009909D02*
X002100Y009909D01*
X002100Y009811D02*
X001846Y009811D01*
X001793Y009712D02*
X002100Y009712D01*
X002100Y009614D02*
X001922Y009614D01*
X002003Y009515D02*
X002100Y009515D01*
X002100Y009417D02*
X002044Y009417D01*
X002100Y009415D02*
X002100Y008700D01*
X002104Y008826D02*
X001861Y008826D01*
X001959Y008924D02*
X002100Y008924D01*
X002100Y009023D02*
X002019Y009023D01*
X002059Y009121D02*
X002100Y009121D01*
X002100Y009220D02*
X002070Y009220D01*
X002070Y009318D02*
X002100Y009318D01*
X001700Y013751D02*
X002931Y013751D01*
X002930Y014145D02*
X002060Y014145D01*
X002062Y014342D02*
X002733Y014342D01*
X002635Y014440D02*
X002035Y014440D01*
X001983Y014539D02*
X002536Y014539D01*
X002438Y014637D02*
X001898Y014637D01*
X001738Y014736D02*
X002339Y014736D01*
X002241Y014834D02*
X001869Y014834D01*
X001968Y014933D02*
X002142Y014933D01*
X001600Y014243D02*
X002832Y014243D01*
X002250Y004265D02*
X002205Y004250D01*
X001550Y004250D01*
D22*
X003617Y010067D02*
X003950Y010400D01*
X003950Y011350D01*
X004072Y011472D01*
X004350Y011472D01*
X004344Y011478D02*
X005040Y011478D01*
X005322Y011478D01*
X005750Y011050D01*
X005750Y010850D01*
X004344Y012502D02*
X004350Y012718D01*
X004350Y012950D01*
X004350Y013050D01*
X004350Y013850D01*
X003850Y014350D01*
X003050Y014350D01*
X002150Y015250D01*
X001550Y015250D01*
X001550Y014250D02*
X001950Y014250D01*
X002350Y013850D01*
X002350Y011876D01*
X002880Y011876D01*
X002350Y011876D02*
X002350Y011216D01*
X002356Y011260D01*
D23*
X002150Y010650D03*
X003530Y010850D03*
X004550Y010640D03*
X004960Y010270D03*
X004950Y011050D03*
X005750Y010850D03*
X006210Y011480D03*
X006610Y010990D03*
X006950Y011850D03*
X006450Y012450D03*
X007150Y012750D03*
X005050Y013650D03*
X005050Y015350D03*
X004790Y009180D03*
X004190Y008680D03*
X004190Y007580D03*
X005470Y007070D03*
X005750Y008150D03*
X005700Y008910D03*
X005040Y005850D03*
X005890Y005210D03*
X007190Y004811D03*
X005971Y003522D03*
X007150Y002750D03*
X007304Y001704D03*
X004090Y005900D03*
X003371Y004822D03*
X002250Y005750D03*
X002540Y007800D03*
X002550Y001750D03*
M02*
