G75*
%MOIN*%
%OFA0B0*%
%FSLAX24Y24*%
%IPPOS*%
%LPD*%
%AMOC8*
5,1,8,0,0,1.08239X$1,22.5*
%
%ADD10C,0.0800*%
%ADD11OC8,0.0800*%
%ADD12R,0.0454X0.0493*%
%ADD13C,0.0436*%
D10*
X001550Y001250D03*
X001550Y002250D03*
X001550Y003250D03*
X001550Y004250D03*
X001550Y005250D03*
X001550Y006250D03*
X001550Y007250D03*
X001550Y008250D03*
X001550Y009250D03*
X001550Y010250D03*
X001550Y011250D03*
X001550Y012250D03*
X001550Y013250D03*
X001550Y014250D03*
X001550Y015250D03*
X008550Y015250D03*
X008550Y014250D03*
X008550Y013250D03*
X008550Y012250D03*
X008550Y011250D03*
X008550Y010250D03*
X008550Y009250D03*
X008550Y008250D03*
X008550Y007250D03*
X008550Y006250D03*
X008550Y005250D03*
X008550Y004250D03*
X008550Y003250D03*
X008550Y002250D03*
X008550Y001250D03*
D11*
X006150Y001550D03*
X006150Y002550D03*
X005150Y002550D03*
X005150Y001550D03*
X004150Y001550D03*
X004150Y002550D03*
D12*
X005784Y013965D03*
X005784Y014635D03*
X006414Y014635D03*
X006414Y013965D03*
D13*
X007150Y012750D03*
X006450Y012450D03*
X006950Y011850D03*
X006210Y011480D03*
X006610Y010990D03*
X005750Y010850D03*
X004950Y011050D03*
X004550Y010640D03*
X004960Y010270D03*
X004790Y009180D03*
X004190Y008680D03*
X004190Y007580D03*
X005470Y007070D03*
X005750Y008150D03*
X005700Y008910D03*
X003530Y010850D03*
X002150Y010650D03*
X002540Y007800D03*
X004090Y005900D03*
X003371Y004822D03*
X002250Y005750D03*
X005040Y005850D03*
X005890Y005210D03*
X007190Y004811D03*
X005971Y003522D03*
X007150Y002750D03*
X007304Y001704D03*
X002550Y001750D03*
X005050Y013650D03*
X005050Y015350D03*
M02*
