%
M48
M72
T01C0.0236
T02C0.0400
%
T01
X2550Y1750
X3371Y4822
X4090Y5900
X5040Y5850
X5890Y5210
X7190Y4811
X5971Y3522
X7150Y2750
X7304Y1704
X5470Y7070
X5750Y8150
X5700Y8910
X4790Y9180
X4190Y8680
X4190Y7580
X2540Y7800
X2250Y5750
X4960Y10270
X4550Y10640
X4950Y11050
X5750Y10850
X6210Y11480
X6610Y10990
X6950Y11850
X6450Y12450
X7150Y12750
X5050Y13650
X5050Y15350
X3530Y10850
X2150Y10650
T02
X1550Y1250
X1550Y2250
X1550Y3250
X1550Y4250
X1550Y5250
X1550Y6250
X1550Y7250
X1550Y8250
X1550Y9250
X1550Y10250
X1550Y11250
X1550Y12250
X1550Y13250
X1550Y14250
X1550Y15250
X8550Y15250
X8550Y14250
X8550Y13250
X8550Y12250
X8550Y11250
X8550Y10250
X8550Y9250
X8550Y8250
X8550Y7250
X8550Y6250
X8550Y5250
X8550Y4250
X8550Y3250
X8550Y2250
X8550Y1250
X6150Y1550
X6150Y2550
X5150Y2550
X5150Y1550
X4150Y1550
X4150Y2550
M30
