G75*
%MOIN*%
%OFA0B0*%
%FSLAX24Y24*%
%IPPOS*%
%LPD*%
%AMOC8*
5,1,8,0,0,1.08239X$1,22.5*
%
%ADD10C,0.0740*%
%ADD11OC8,0.0740*%
%ADD12R,0.0394X0.0433*%
%ADD13C,0.0376*%
%ADD14C,0.0100*%
%ADD15C,0.0160*%
D10*
X001550Y001250D03*
X001550Y002250D03*
X001550Y003250D03*
X001550Y004250D03*
X001550Y005250D03*
X001550Y006250D03*
X001550Y007250D03*
X001550Y008250D03*
X001550Y009250D03*
X001550Y010250D03*
X001550Y011250D03*
X001550Y012250D03*
X001550Y013250D03*
X001550Y014250D03*
X001550Y015250D03*
X008550Y015250D03*
X008550Y014250D03*
X008550Y013250D03*
X008550Y012250D03*
X008550Y011250D03*
X008550Y010250D03*
X008550Y009250D03*
X008550Y008250D03*
X008550Y007250D03*
X008550Y006250D03*
X008550Y005250D03*
X008550Y004250D03*
X008550Y003250D03*
X008550Y002250D03*
X008550Y001250D03*
D11*
X006150Y001550D03*
X006150Y002550D03*
X005150Y002550D03*
X005150Y001550D03*
X004150Y001550D03*
X004150Y002550D03*
D12*
X005784Y013965D03*
X005784Y014635D03*
X006414Y014635D03*
X006414Y013965D03*
D13*
X007150Y012750D03*
X006450Y012450D03*
X006950Y011850D03*
X006210Y011480D03*
X006610Y010990D03*
X005750Y010850D03*
X004950Y011050D03*
X004550Y010640D03*
X004960Y010270D03*
X004790Y009180D03*
X004190Y008680D03*
X004190Y007580D03*
X005470Y007070D03*
X005750Y008150D03*
X005700Y008910D03*
X003530Y010850D03*
X002150Y010650D03*
X002540Y007800D03*
X004090Y005900D03*
X003371Y004822D03*
X002250Y005750D03*
X005040Y005850D03*
X005890Y005210D03*
X007190Y004811D03*
X005971Y003522D03*
X007150Y002750D03*
X007304Y001704D03*
X002550Y001750D03*
X005050Y013650D03*
X005050Y015350D03*
D14*
X005456Y014933D02*
X001968Y014933D01*
X001991Y014955D02*
X002070Y015147D01*
X002070Y015353D01*
X001991Y015545D01*
X001935Y015600D01*
X008165Y015600D01*
X008109Y015545D01*
X008030Y015353D01*
X008030Y015147D01*
X008038Y015127D01*
X007950Y015226D01*
X007950Y015233D01*
X007896Y015287D01*
X007844Y015345D01*
X007838Y015345D01*
X007833Y015350D01*
X007756Y015350D01*
X007679Y015355D01*
X007674Y015350D01*
X005918Y015350D01*
X005710Y015141D01*
X005593Y015024D01*
X005593Y015001D01*
X005525Y015001D01*
X005437Y014913D01*
X005437Y014356D01*
X005493Y014300D01*
X005437Y014244D01*
X005437Y013687D01*
X005525Y013599D01*
X006043Y013599D01*
X006099Y013655D01*
X006155Y013599D01*
X006673Y013599D01*
X006761Y013687D01*
X006761Y013765D01*
X006950Y013765D01*
X006950Y013028D01*
X006863Y012942D01*
X006812Y012817D01*
X006812Y012683D01*
X006863Y012558D01*
X006958Y012463D01*
X007083Y012412D01*
X007217Y012412D01*
X007342Y012463D01*
X007437Y012558D01*
X007488Y012683D01*
X007488Y012817D01*
X007437Y012942D01*
X007350Y013028D01*
X007350Y013933D01*
X007117Y014165D01*
X006761Y014165D01*
X006761Y014244D01*
X006705Y014300D01*
X006761Y014356D01*
X006761Y014750D01*
X007467Y014750D01*
X007750Y014467D01*
X007750Y013767D01*
X008069Y013448D01*
X008030Y013353D01*
X008030Y013147D01*
X008109Y012955D01*
X008255Y012809D01*
X008398Y012750D01*
X008255Y012691D01*
X008109Y012545D01*
X008030Y012353D01*
X008030Y012147D01*
X008109Y011955D01*
X008255Y011809D01*
X008398Y011750D01*
X008255Y011691D01*
X008109Y011545D01*
X008030Y011353D01*
X008030Y011147D01*
X008109Y010955D01*
X008255Y010809D01*
X008398Y010750D01*
X008255Y010691D01*
X008109Y010545D01*
X008030Y010353D01*
X008030Y010147D01*
X008109Y009955D01*
X008255Y009809D01*
X008398Y009750D01*
X008255Y009691D01*
X008109Y009545D01*
X008030Y009353D01*
X008030Y009147D01*
X008109Y008955D01*
X008255Y008809D01*
X008398Y008750D01*
X008255Y008691D01*
X008109Y008545D01*
X008030Y008353D01*
X008030Y008147D01*
X008109Y007955D01*
X008255Y007809D01*
X008402Y007749D01*
X008350Y007732D01*
X008277Y007695D01*
X008211Y007647D01*
X008153Y007589D01*
X008105Y007523D01*
X008068Y007450D01*
X008043Y007372D01*
X008031Y007300D01*
X008500Y007300D01*
X008500Y007200D01*
X008031Y007200D01*
X008043Y007128D01*
X008068Y007050D01*
X008105Y006977D01*
X008153Y006911D01*
X008211Y006853D01*
X008277Y006805D01*
X008350Y006768D01*
X008402Y006751D01*
X008255Y006691D01*
X008109Y006545D01*
X008030Y006353D01*
X008030Y006147D01*
X008109Y005955D01*
X008255Y005809D01*
X008398Y005750D01*
X008311Y005714D01*
X007480Y006545D01*
X007480Y009445D01*
X007345Y009580D01*
X006088Y010837D01*
X006088Y010917D01*
X006037Y011042D01*
X005942Y011137D01*
X005817Y011188D01*
X005683Y011188D01*
X005558Y011137D01*
X005463Y011042D01*
X005412Y010917D01*
X005412Y010783D01*
X005463Y010658D01*
X005520Y010602D01*
X005520Y009845D01*
X005020Y009345D01*
X005020Y008045D01*
X002035Y005060D01*
X002057Y005128D01*
X002069Y005200D01*
X001600Y005200D01*
X001600Y005300D01*
X002069Y005300D01*
X002057Y005372D01*
X002032Y005450D01*
X001995Y005523D01*
X001947Y005589D01*
X001889Y005647D01*
X001823Y005695D01*
X001750Y005732D01*
X001698Y005749D01*
X001845Y005809D01*
X001991Y005955D01*
X002070Y006147D01*
X002070Y006353D01*
X001991Y006545D01*
X001845Y006691D01*
X001702Y006750D01*
X001845Y006809D01*
X001991Y006955D01*
X002070Y007147D01*
X002070Y007353D01*
X001991Y007545D01*
X001845Y007691D01*
X001702Y007750D01*
X001845Y007809D01*
X001991Y007955D01*
X002070Y008147D01*
X002070Y008353D01*
X001991Y008545D01*
X001845Y008691D01*
X001702Y008750D01*
X001845Y008809D01*
X001991Y008955D01*
X002070Y009147D01*
X002070Y009353D01*
X001991Y009545D01*
X001959Y009576D01*
X002233Y009850D01*
X004567Y009850D01*
X004677Y009740D01*
X005233Y009740D01*
X005500Y010007D01*
X005500Y010523D01*
X005213Y010810D01*
X005047Y010810D01*
X004846Y010810D01*
X004837Y010832D01*
X004742Y010927D01*
X004617Y010978D01*
X004483Y010978D01*
X004358Y010927D01*
X004263Y010832D01*
X004212Y010707D01*
X004212Y010573D01*
X004263Y010450D01*
X002030Y010450D01*
X001991Y010545D01*
X001845Y010691D01*
X001702Y010750D01*
X001845Y010809D01*
X001991Y010955D01*
X002070Y011147D01*
X002070Y011353D01*
X002031Y011448D01*
X002033Y011450D01*
X005867Y011450D01*
X005872Y011445D01*
X005872Y011413D01*
X005923Y011288D01*
X006018Y011193D01*
X006143Y011142D01*
X006277Y011142D01*
X006313Y011157D01*
X006272Y011057D01*
X006272Y010923D01*
X006323Y010798D01*
X006418Y010703D01*
X006543Y010652D01*
X006677Y010652D01*
X006802Y010703D01*
X006897Y010798D01*
X006948Y010923D01*
X006948Y011057D01*
X006897Y011182D01*
X006810Y011268D01*
X006810Y011542D01*
X006883Y011512D01*
X007017Y011512D01*
X007142Y011563D01*
X007237Y011658D01*
X007288Y011783D01*
X007288Y011917D01*
X007237Y012042D01*
X007142Y012137D01*
X007017Y012188D01*
X006895Y012188D01*
X006833Y012250D01*
X002433Y012250D01*
X002300Y012383D01*
X002300Y012689D01*
X002301Y012771D01*
X002300Y012772D01*
X002300Y012773D01*
X002242Y012831D01*
X002029Y013048D01*
X002070Y013147D01*
X002070Y013353D01*
X001991Y013545D01*
X001845Y013691D01*
X001698Y013751D01*
X001750Y013768D01*
X001823Y013805D01*
X001889Y013853D01*
X001947Y013911D01*
X001995Y013977D01*
X002032Y014050D01*
X002057Y014128D01*
X002069Y014200D01*
X001600Y014200D01*
X001600Y014300D01*
X002069Y014300D01*
X002057Y014372D01*
X002032Y014450D01*
X001995Y014523D01*
X001947Y014589D01*
X001889Y014647D01*
X001823Y014695D01*
X001750Y014732D01*
X001698Y014749D01*
X001845Y014809D01*
X001991Y014955D01*
X002022Y015031D02*
X005599Y015031D01*
X005698Y015130D02*
X002063Y015130D01*
X002070Y015228D02*
X005796Y015228D01*
X005895Y015327D02*
X002070Y015327D01*
X002040Y015425D02*
X008060Y015425D01*
X008030Y015327D02*
X007861Y015327D01*
X007950Y015228D02*
X008030Y015228D01*
X008036Y015130D02*
X008037Y015130D01*
X007750Y015150D02*
X008550Y014250D01*
X007950Y014550D02*
X007950Y013850D01*
X008550Y013250D01*
X008201Y012864D02*
X007469Y012864D01*
X007488Y012766D02*
X008361Y012766D01*
X008232Y012667D02*
X007482Y012667D01*
X007441Y012569D02*
X008133Y012569D01*
X008078Y012470D02*
X007348Y012470D01*
X007150Y012750D02*
X007150Y013850D01*
X007035Y013965D01*
X006414Y013965D01*
X005784Y013965D01*
X005437Y013948D02*
X001973Y013948D01*
X002030Y014046D02*
X005437Y014046D01*
X005437Y014145D02*
X002060Y014145D01*
X002062Y014342D02*
X005452Y014342D01*
X005437Y014440D02*
X002035Y014440D01*
X001983Y014539D02*
X005437Y014539D01*
X005437Y014637D02*
X001898Y014637D01*
X001738Y014736D02*
X005437Y014736D01*
X005437Y014834D02*
X001869Y014834D01*
X001600Y014243D02*
X005437Y014243D01*
X005784Y014635D02*
X005793Y014643D01*
X005793Y014941D01*
X006001Y015150D01*
X007750Y015150D01*
X007550Y014950D02*
X007950Y014550D01*
X007750Y014440D02*
X006761Y014440D01*
X006761Y014539D02*
X007679Y014539D01*
X007580Y014637D02*
X006761Y014637D01*
X006761Y014736D02*
X007482Y014736D01*
X007550Y014950D02*
X006470Y014950D01*
X006383Y014863D01*
X006383Y014665D01*
X006414Y014635D01*
X006746Y014342D02*
X007750Y014342D01*
X007750Y014243D02*
X006761Y014243D01*
X007138Y014145D02*
X007750Y014145D01*
X007750Y014046D02*
X007237Y014046D01*
X007335Y013948D02*
X007750Y013948D01*
X007750Y013849D02*
X007350Y013849D01*
X007350Y013751D02*
X007767Y013751D01*
X007865Y013652D02*
X007350Y013652D01*
X007350Y013554D02*
X007964Y013554D01*
X008062Y013455D02*
X007350Y013455D01*
X007350Y013357D02*
X008031Y013357D01*
X008030Y013258D02*
X007350Y013258D01*
X007350Y013160D02*
X008030Y013160D01*
X008065Y013061D02*
X007350Y013061D01*
X007416Y012963D02*
X008106Y012963D01*
X008037Y012372D02*
X002311Y012372D01*
X002300Y012470D02*
X006952Y012470D01*
X006859Y012569D02*
X002300Y012569D01*
X002300Y012667D02*
X006818Y012667D01*
X006812Y012766D02*
X002301Y012766D01*
X002209Y012864D02*
X006831Y012864D01*
X006884Y012963D02*
X002113Y012963D01*
X002035Y013061D02*
X006950Y013061D01*
X006950Y013160D02*
X002070Y013160D01*
X002070Y013258D02*
X006950Y013258D01*
X006950Y013357D02*
X002069Y013357D01*
X002028Y013455D02*
X006950Y013455D01*
X006950Y013554D02*
X001982Y013554D01*
X001883Y013652D02*
X005472Y013652D01*
X005437Y013751D02*
X001700Y013751D01*
X001883Y013849D02*
X005437Y013849D01*
X006096Y013652D02*
X006102Y013652D01*
X006726Y013652D02*
X006950Y013652D01*
X006950Y013751D02*
X006761Y013751D01*
X007050Y012175D02*
X008030Y012175D01*
X008030Y012273D02*
X002410Y012273D01*
X002350Y012050D02*
X002100Y012300D01*
X002100Y012690D01*
X001550Y013250D01*
X001550Y012250D02*
X001950Y011850D01*
X006340Y011850D01*
X006610Y011580D01*
X006610Y010990D01*
X006948Y010993D02*
X008094Y010993D01*
X008053Y011091D02*
X006934Y011091D01*
X006889Y011190D02*
X008030Y011190D01*
X008030Y011288D02*
X006810Y011288D01*
X006810Y011387D02*
X008044Y011387D01*
X008085Y011485D02*
X006810Y011485D01*
X007162Y011584D02*
X008148Y011584D01*
X008247Y011682D02*
X007246Y011682D01*
X007287Y011781D02*
X008325Y011781D01*
X008186Y011879D02*
X007288Y011879D01*
X007263Y011978D02*
X008100Y011978D01*
X008059Y012076D02*
X007202Y012076D01*
X006950Y011850D02*
X006750Y012050D01*
X002350Y012050D01*
X001950Y011650D02*
X001550Y011250D01*
X001929Y010894D02*
X004326Y010894D01*
X004248Y010796D02*
X001812Y010796D01*
X001830Y010697D02*
X004212Y010697D01*
X004212Y010599D02*
X001937Y010599D01*
X002009Y010500D02*
X004242Y010500D01*
X004550Y010640D02*
X004660Y010610D01*
X005130Y010610D01*
X005300Y010440D01*
X005300Y010090D01*
X005150Y009940D01*
X004760Y009940D01*
X004650Y010050D01*
X002150Y010050D01*
X001550Y009450D01*
X001550Y009250D01*
X001959Y008924D02*
X005020Y008924D01*
X005020Y008826D02*
X001861Y008826D01*
X001757Y008727D02*
X005020Y008727D01*
X005020Y008629D02*
X001907Y008629D01*
X001997Y008530D02*
X005020Y008530D01*
X005020Y008432D02*
X002038Y008432D01*
X002070Y008333D02*
X005020Y008333D01*
X005020Y008235D02*
X002070Y008235D01*
X002066Y008136D02*
X005020Y008136D01*
X005012Y008038D02*
X002025Y008038D01*
X001974Y007939D02*
X004914Y007939D01*
X004815Y007841D02*
X001876Y007841D01*
X001721Y007742D02*
X004717Y007742D01*
X004618Y007644D02*
X001892Y007644D01*
X001990Y007545D02*
X004520Y007545D01*
X004421Y007447D02*
X002031Y007447D01*
X002070Y007348D02*
X004323Y007348D01*
X004224Y007250D02*
X002070Y007250D01*
X002070Y007151D02*
X004126Y007151D01*
X004027Y007053D02*
X002031Y007053D01*
X001989Y006954D02*
X003929Y006954D01*
X003830Y006856D02*
X001891Y006856D01*
X001877Y006659D02*
X003633Y006659D01*
X003732Y006757D02*
X001719Y006757D01*
X001975Y006560D02*
X003535Y006560D01*
X003436Y006462D02*
X002025Y006462D01*
X002066Y006363D02*
X003338Y006363D01*
X003239Y006265D02*
X002070Y006265D01*
X002070Y006166D02*
X003141Y006166D01*
X003042Y006068D02*
X002037Y006068D01*
X001996Y005969D02*
X002944Y005969D01*
X002845Y005871D02*
X001906Y005871D01*
X001755Y005772D02*
X002747Y005772D01*
X002648Y005674D02*
X001852Y005674D01*
X001957Y005575D02*
X002550Y005575D01*
X002451Y005477D02*
X002018Y005477D01*
X002055Y005378D02*
X002353Y005378D01*
X002254Y005280D02*
X001600Y005280D01*
X001550Y005250D02*
X001750Y005250D01*
X002066Y005181D02*
X002156Y005181D01*
X002057Y005083D02*
X002042Y005083D01*
X002412Y004787D02*
X004920Y004787D01*
X004960Y004748D02*
X004952Y003070D01*
X004935Y003070D01*
X004650Y002785D01*
X004365Y003070D01*
X003935Y003070D01*
X003924Y003059D01*
X002533Y004450D01*
X002075Y004450D01*
X005345Y007720D01*
X005480Y007855D01*
X005480Y008652D01*
X005508Y008623D01*
X005633Y008572D01*
X005745Y008572D01*
X006550Y007767D01*
X006550Y002885D01*
X006365Y003070D01*
X006200Y003070D01*
X006200Y002600D01*
X006100Y002600D01*
X006100Y003070D01*
X005935Y003070D01*
X005650Y002785D01*
X005365Y003070D01*
X005352Y003070D01*
X005360Y004747D01*
X005360Y004830D01*
X005360Y004912D01*
X005360Y004913D01*
X005302Y004971D01*
X005244Y005030D01*
X005243Y005030D01*
X004428Y005845D01*
X004428Y005967D01*
X004377Y006092D01*
X004282Y006187D01*
X004157Y006238D01*
X004023Y006238D01*
X003898Y006187D01*
X003803Y006092D01*
X003752Y005967D01*
X003752Y005833D01*
X003803Y005708D01*
X003898Y005613D01*
X004023Y005562D01*
X004145Y005562D01*
X004960Y004748D01*
X004959Y004689D02*
X002314Y004689D01*
X002215Y004590D02*
X004959Y004590D01*
X004959Y004492D02*
X002117Y004492D01*
X002450Y004250D02*
X001550Y004250D01*
X002030Y004050D02*
X001991Y003955D01*
X001845Y003809D01*
X001698Y003749D01*
X001750Y003732D01*
X001823Y003695D01*
X001889Y003647D01*
X001947Y003589D01*
X001995Y003523D01*
X002032Y003450D01*
X002057Y003372D01*
X002069Y003300D01*
X001600Y003300D01*
X001600Y003200D01*
X002069Y003200D01*
X002057Y003128D01*
X002032Y003050D01*
X001995Y002977D01*
X001947Y002911D01*
X001889Y002853D01*
X001823Y002805D01*
X001750Y002768D01*
X001698Y002751D01*
X001845Y002691D01*
X001991Y002545D01*
X002070Y002353D01*
X002070Y002147D01*
X001991Y001955D01*
X001845Y001809D01*
X001702Y001750D01*
X001845Y001691D01*
X001991Y001545D01*
X002070Y001353D01*
X002070Y001147D01*
X001991Y000955D01*
X001935Y000900D01*
X004417Y000900D01*
X004287Y001030D01*
X003935Y001030D01*
X003630Y001335D01*
X003630Y001765D01*
X003915Y002050D01*
X003630Y002335D01*
X003630Y002765D01*
X003641Y002776D01*
X002367Y004050D01*
X002030Y004050D01*
X002009Y003999D02*
X002418Y003999D01*
X002517Y003901D02*
X001936Y003901D01*
X001827Y003802D02*
X002615Y003802D01*
X002714Y003704D02*
X001805Y003704D01*
X001930Y003605D02*
X002812Y003605D01*
X002911Y003507D02*
X002003Y003507D01*
X002045Y003408D02*
X003009Y003408D01*
X003108Y003310D02*
X002067Y003310D01*
X002052Y003113D02*
X003305Y003113D01*
X003206Y003211D02*
X001600Y003211D01*
X001950Y002916D02*
X003502Y002916D01*
X003403Y003014D02*
X002013Y003014D01*
X001839Y002817D02*
X003600Y002817D01*
X003630Y002719D02*
X001778Y002719D01*
X001915Y002620D02*
X003630Y002620D01*
X003630Y002522D02*
X002000Y002522D01*
X002041Y002423D02*
X003630Y002423D01*
X003640Y002325D02*
X002070Y002325D01*
X002070Y002226D02*
X003739Y002226D01*
X003837Y002128D02*
X002062Y002128D01*
X002021Y002029D02*
X003894Y002029D01*
X003795Y001931D02*
X001966Y001931D01*
X001867Y001832D02*
X003697Y001832D01*
X003630Y001734D02*
X001742Y001734D01*
X001900Y001635D02*
X003630Y001635D01*
X003630Y001537D02*
X001994Y001537D01*
X002035Y001438D02*
X003630Y001438D01*
X003630Y001340D02*
X002070Y001340D01*
X002070Y001241D02*
X003724Y001241D01*
X003822Y001143D02*
X002068Y001143D01*
X002028Y001044D02*
X003921Y001044D01*
X004372Y000946D02*
X001981Y000946D01*
X003870Y003113D02*
X004952Y003113D01*
X004953Y003211D02*
X003772Y003211D01*
X003673Y003310D02*
X004953Y003310D01*
X004954Y003408D02*
X003575Y003408D01*
X003476Y003507D02*
X004954Y003507D01*
X004955Y003605D02*
X003378Y003605D01*
X003279Y003704D02*
X004955Y003704D01*
X004955Y003802D02*
X003181Y003802D01*
X003082Y003901D02*
X004956Y003901D01*
X004956Y003999D02*
X002984Y003999D01*
X002885Y004098D02*
X004957Y004098D01*
X004957Y004196D02*
X002787Y004196D01*
X002688Y004295D02*
X004958Y004295D01*
X004958Y004393D02*
X002590Y004393D01*
X002450Y004250D02*
X004150Y002550D01*
X004520Y002916D02*
X004780Y002916D01*
X004879Y003014D02*
X004421Y003014D01*
X004618Y002817D02*
X004682Y002817D01*
X005150Y002550D02*
X005160Y004830D01*
X004090Y005900D01*
X003777Y005772D02*
X003397Y005772D01*
X003299Y005674D02*
X003838Y005674D01*
X003752Y005871D02*
X003496Y005871D01*
X003594Y005969D02*
X003753Y005969D01*
X003793Y006068D02*
X003693Y006068D01*
X003791Y006166D02*
X003878Y006166D01*
X003890Y006265D02*
X006550Y006265D01*
X006550Y006363D02*
X003988Y006363D01*
X004087Y006462D02*
X006550Y006462D01*
X006550Y006560D02*
X004185Y006560D01*
X004284Y006659D02*
X006550Y006659D01*
X006550Y006757D02*
X004382Y006757D01*
X004481Y006856D02*
X006550Y006856D01*
X006550Y006954D02*
X004579Y006954D01*
X004678Y007053D02*
X006550Y007053D01*
X006550Y007151D02*
X004776Y007151D01*
X004875Y007250D02*
X006550Y007250D01*
X006550Y007348D02*
X004973Y007348D01*
X005072Y007447D02*
X006550Y007447D01*
X006550Y007545D02*
X005170Y007545D01*
X005269Y007644D02*
X006550Y007644D01*
X006550Y007742D02*
X005367Y007742D01*
X005466Y007841D02*
X006477Y007841D01*
X006378Y007939D02*
X005480Y007939D01*
X005480Y008038D02*
X006280Y008038D01*
X006181Y008136D02*
X005480Y008136D01*
X005480Y008235D02*
X006083Y008235D01*
X005984Y008333D02*
X005480Y008333D01*
X005480Y008432D02*
X005886Y008432D01*
X005787Y008530D02*
X005480Y008530D01*
X005480Y008629D02*
X005503Y008629D01*
X005700Y008900D02*
X006750Y007850D01*
X006750Y001950D01*
X006350Y001550D01*
X006150Y001550D01*
X006485Y001150D02*
X006670Y001335D01*
X006670Y001587D01*
X006950Y001867D01*
X006950Y007933D01*
X006833Y008050D01*
X006038Y008845D01*
X006038Y008977D01*
X005987Y009102D01*
X005892Y009197D01*
X005767Y009248D01*
X005633Y009248D01*
X005531Y009206D01*
X005845Y009520D01*
X005980Y009655D01*
X005980Y010295D01*
X007020Y009255D01*
X007020Y006355D01*
X007155Y006220D01*
X008030Y005345D01*
X008030Y005147D01*
X008109Y004955D01*
X008255Y004809D01*
X008398Y004750D01*
X008255Y004691D01*
X008109Y004545D01*
X008030Y004353D01*
X008030Y004147D01*
X008069Y004052D01*
X007750Y003733D01*
X007750Y003333D01*
X007667Y003250D01*
X007550Y003133D01*
X007550Y001936D01*
X007496Y001990D01*
X007372Y002042D01*
X007237Y002042D01*
X007113Y001990D01*
X007018Y001895D01*
X006966Y001771D01*
X006966Y001636D01*
X007018Y001512D01*
X007113Y001417D01*
X007237Y001366D01*
X007372Y001366D01*
X007496Y001417D01*
X007582Y001504D01*
X007687Y001504D01*
X007750Y001567D01*
X007750Y001333D01*
X007567Y001150D01*
X006485Y001150D01*
X006576Y001241D02*
X007658Y001241D01*
X007750Y001340D02*
X006670Y001340D01*
X006670Y001438D02*
X007092Y001438D01*
X007008Y001537D02*
X006670Y001537D01*
X006718Y001635D02*
X006967Y001635D01*
X006966Y001734D02*
X006816Y001734D01*
X006915Y001832D02*
X006992Y001832D01*
X006950Y001931D02*
X007053Y001931D01*
X006950Y002029D02*
X007206Y002029D01*
X007403Y002029D02*
X007550Y002029D01*
X007550Y002128D02*
X006950Y002128D01*
X006950Y002226D02*
X007550Y002226D01*
X007550Y002325D02*
X006950Y002325D01*
X006950Y002423D02*
X007550Y002423D01*
X007550Y002522D02*
X006950Y002522D01*
X006950Y002620D02*
X007550Y002620D01*
X007550Y002719D02*
X006950Y002719D01*
X006950Y002817D02*
X007550Y002817D01*
X007550Y002916D02*
X006950Y002916D01*
X006950Y003014D02*
X007550Y003014D01*
X007550Y003113D02*
X006950Y003113D01*
X006950Y003211D02*
X007628Y003211D01*
X007727Y003310D02*
X006950Y003310D01*
X006950Y003408D02*
X007750Y003408D01*
X007750Y003507D02*
X006950Y003507D01*
X006950Y003605D02*
X007750Y003605D01*
X007750Y003704D02*
X006950Y003704D01*
X006950Y003802D02*
X007819Y003802D01*
X007918Y003901D02*
X006950Y003901D01*
X006950Y003999D02*
X008016Y003999D01*
X008050Y004098D02*
X006950Y004098D01*
X006950Y004196D02*
X008030Y004196D01*
X008030Y004295D02*
X006950Y004295D01*
X006950Y004393D02*
X008046Y004393D01*
X008087Y004492D02*
X006950Y004492D01*
X006950Y004590D02*
X008155Y004590D01*
X008253Y004689D02*
X006950Y004689D01*
X006950Y004787D02*
X008309Y004787D01*
X008179Y004886D02*
X006950Y004886D01*
X006950Y004984D02*
X008097Y004984D01*
X008057Y005083D02*
X006950Y005083D01*
X006950Y005181D02*
X008030Y005181D01*
X008030Y005280D02*
X006950Y005280D01*
X006950Y005378D02*
X007997Y005378D01*
X007898Y005477D02*
X006950Y005477D01*
X006950Y005575D02*
X007800Y005575D01*
X007701Y005674D02*
X006950Y005674D01*
X006950Y005772D02*
X007603Y005772D01*
X007504Y005871D02*
X006950Y005871D01*
X006950Y005969D02*
X007406Y005969D01*
X007307Y006068D02*
X006950Y006068D01*
X006950Y006166D02*
X007209Y006166D01*
X007110Y006265D02*
X006950Y006265D01*
X006950Y006363D02*
X007020Y006363D01*
X007020Y006462D02*
X006950Y006462D01*
X006950Y006560D02*
X007020Y006560D01*
X007020Y006659D02*
X006950Y006659D01*
X006950Y006757D02*
X007020Y006757D01*
X007020Y006856D02*
X006950Y006856D01*
X006950Y006954D02*
X007020Y006954D01*
X007020Y007053D02*
X006950Y007053D01*
X006950Y007151D02*
X007020Y007151D01*
X007020Y007250D02*
X006950Y007250D01*
X006950Y007348D02*
X007020Y007348D01*
X007020Y007447D02*
X006950Y007447D01*
X006950Y007545D02*
X007020Y007545D01*
X007020Y007644D02*
X006950Y007644D01*
X006950Y007742D02*
X007020Y007742D01*
X007020Y007841D02*
X006950Y007841D01*
X006944Y007939D02*
X007020Y007939D01*
X007020Y008038D02*
X006845Y008038D01*
X006747Y008136D02*
X007020Y008136D01*
X007020Y008235D02*
X006648Y008235D01*
X006550Y008333D02*
X007020Y008333D01*
X007020Y008432D02*
X006451Y008432D01*
X006353Y008530D02*
X007020Y008530D01*
X007020Y008629D02*
X006254Y008629D01*
X006156Y008727D02*
X007020Y008727D01*
X007020Y008826D02*
X006057Y008826D01*
X006038Y008924D02*
X007020Y008924D01*
X007020Y009023D02*
X006019Y009023D01*
X005967Y009121D02*
X007020Y009121D01*
X007020Y009220D02*
X005836Y009220D01*
X005643Y009318D02*
X006957Y009318D01*
X006858Y009417D02*
X005742Y009417D01*
X005840Y009515D02*
X006760Y009515D01*
X006661Y009614D02*
X005939Y009614D01*
X005980Y009712D02*
X006563Y009712D01*
X006464Y009811D02*
X005980Y009811D01*
X005980Y009909D02*
X006366Y009909D01*
X006267Y010008D02*
X005980Y010008D01*
X005980Y010106D02*
X006169Y010106D01*
X006070Y010205D02*
X005980Y010205D01*
X005520Y010205D02*
X005500Y010205D01*
X005500Y010303D02*
X005520Y010303D01*
X005520Y010402D02*
X005500Y010402D01*
X005500Y010500D02*
X005520Y010500D01*
X005520Y010599D02*
X005424Y010599D01*
X005447Y010697D02*
X005326Y010697D01*
X005412Y010796D02*
X005227Y010796D01*
X005412Y010894D02*
X004774Y010894D01*
X004960Y010270D02*
X004940Y010250D01*
X001550Y010250D01*
X002095Y009712D02*
X005387Y009712D01*
X005303Y009811D02*
X005485Y009811D01*
X005520Y009909D02*
X005402Y009909D01*
X005500Y010008D02*
X005520Y010008D01*
X005520Y010106D02*
X005500Y010106D01*
X005288Y009614D02*
X001996Y009614D01*
X002003Y009515D02*
X005190Y009515D01*
X005091Y009417D02*
X002044Y009417D01*
X002070Y009318D02*
X005020Y009318D01*
X005020Y009220D02*
X002070Y009220D01*
X002059Y009121D02*
X005020Y009121D01*
X005020Y009023D02*
X002019Y009023D01*
X002150Y008410D02*
X002540Y007800D01*
X002150Y008410D02*
X002150Y005650D01*
X002708Y005083D02*
X004625Y005083D01*
X004526Y005181D02*
X002806Y005181D01*
X002905Y005280D02*
X004428Y005280D01*
X004329Y005378D02*
X003003Y005378D01*
X003102Y005477D02*
X004231Y005477D01*
X003991Y005575D02*
X003200Y005575D01*
X002609Y004984D02*
X004723Y004984D01*
X004822Y004886D02*
X002511Y004886D01*
X004302Y006166D02*
X006550Y006166D01*
X006550Y006068D02*
X004387Y006068D01*
X004427Y005969D02*
X006550Y005969D01*
X006550Y005871D02*
X004428Y005871D01*
X004501Y005772D02*
X006550Y005772D01*
X006550Y005674D02*
X004599Y005674D01*
X004698Y005575D02*
X006550Y005575D01*
X006550Y005477D02*
X004796Y005477D01*
X004895Y005378D02*
X006550Y005378D01*
X006550Y005280D02*
X004993Y005280D01*
X005092Y005181D02*
X006550Y005181D01*
X006550Y005083D02*
X005190Y005083D01*
X005289Y004984D02*
X006550Y004984D01*
X006550Y004886D02*
X005360Y004886D01*
X005360Y004912D02*
X005360Y004912D01*
X005360Y004787D02*
X006550Y004787D01*
X006550Y004689D02*
X005359Y004689D01*
X005360Y004747D02*
X005360Y004747D01*
X005359Y004590D02*
X006550Y004590D01*
X006550Y004492D02*
X005359Y004492D01*
X005358Y004393D02*
X006550Y004393D01*
X006550Y004295D02*
X005358Y004295D01*
X005357Y004196D02*
X006550Y004196D01*
X006550Y004098D02*
X005357Y004098D01*
X005356Y003999D02*
X006550Y003999D01*
X006550Y003901D02*
X005356Y003901D01*
X005355Y003802D02*
X006550Y003802D01*
X006550Y003704D02*
X005355Y003704D01*
X005355Y003605D02*
X006550Y003605D01*
X006550Y003507D02*
X005354Y003507D01*
X005354Y003408D02*
X006550Y003408D01*
X006550Y003310D02*
X005353Y003310D01*
X005353Y003211D02*
X006550Y003211D01*
X006550Y003113D02*
X005352Y003113D01*
X005421Y003014D02*
X005879Y003014D01*
X005780Y002916D02*
X005520Y002916D01*
X005618Y002817D02*
X005682Y002817D01*
X006100Y002817D02*
X006200Y002817D01*
X006200Y002719D02*
X006100Y002719D01*
X006100Y002620D02*
X006200Y002620D01*
X006150Y002550D02*
X006150Y005010D01*
X005890Y005210D01*
X005940Y006560D01*
X005470Y007070D01*
X005050Y006650D01*
X005040Y005850D01*
X007480Y006560D02*
X008125Y006560D01*
X008075Y006462D02*
X007564Y006462D01*
X007662Y006363D02*
X008034Y006363D01*
X008030Y006265D02*
X007761Y006265D01*
X007859Y006166D02*
X008030Y006166D01*
X008063Y006068D02*
X007958Y006068D01*
X008056Y005969D02*
X008104Y005969D01*
X008155Y005871D02*
X008194Y005871D01*
X008253Y005772D02*
X008345Y005772D01*
X008223Y006659D02*
X007480Y006659D01*
X007480Y006757D02*
X008384Y006757D01*
X008209Y006856D02*
X007480Y006856D01*
X007480Y006954D02*
X008122Y006954D01*
X008067Y007053D02*
X007480Y007053D01*
X007480Y007151D02*
X008039Y007151D01*
X008039Y007348D02*
X007480Y007348D01*
X007480Y007250D02*
X008500Y007250D01*
X008208Y007644D02*
X007480Y007644D01*
X007480Y007742D02*
X008382Y007742D01*
X008224Y007841D02*
X007480Y007841D01*
X007480Y007939D02*
X008126Y007939D01*
X008075Y008038D02*
X007480Y008038D01*
X007480Y008136D02*
X008034Y008136D01*
X008030Y008235D02*
X007480Y008235D01*
X007480Y008333D02*
X008030Y008333D01*
X008062Y008432D02*
X007480Y008432D01*
X007480Y008530D02*
X008103Y008530D01*
X008193Y008629D02*
X007480Y008629D01*
X007480Y008727D02*
X008343Y008727D01*
X008239Y008826D02*
X007480Y008826D01*
X007480Y008924D02*
X008141Y008924D01*
X008081Y009023D02*
X007480Y009023D01*
X007480Y009121D02*
X008041Y009121D01*
X008030Y009220D02*
X007480Y009220D01*
X007480Y009318D02*
X008030Y009318D01*
X008056Y009417D02*
X007480Y009417D01*
X007410Y009515D02*
X008097Y009515D01*
X008178Y009614D02*
X007312Y009614D01*
X007345Y009580D02*
X007345Y009580D01*
X007213Y009712D02*
X008307Y009712D01*
X008254Y009811D02*
X007115Y009811D01*
X007016Y009909D02*
X008156Y009909D01*
X008088Y010008D02*
X006918Y010008D01*
X006819Y010106D02*
X008047Y010106D01*
X008030Y010205D02*
X006721Y010205D01*
X006622Y010303D02*
X008030Y010303D01*
X008050Y010402D02*
X006524Y010402D01*
X006425Y010500D02*
X008091Y010500D01*
X008163Y010599D02*
X006327Y010599D01*
X006228Y010697D02*
X006434Y010697D01*
X006326Y010796D02*
X006130Y010796D01*
X006088Y010894D02*
X006284Y010894D01*
X006272Y010993D02*
X006057Y010993D01*
X005987Y011091D02*
X006286Y011091D01*
X006028Y011190D02*
X002070Y011190D01*
X002070Y011288D02*
X005924Y011288D01*
X005883Y011387D02*
X002056Y011387D01*
X001950Y011650D02*
X005950Y011650D01*
X006210Y011390D01*
X006210Y011480D01*
X005513Y011091D02*
X002047Y011091D01*
X002006Y010993D02*
X005443Y010993D01*
X004607Y009811D02*
X002193Y009811D01*
X004190Y008680D02*
X004730Y009220D01*
X004790Y009180D01*
X005545Y009220D02*
X005564Y009220D01*
X005700Y008910D02*
X005700Y008900D01*
X006786Y010697D02*
X008270Y010697D01*
X008288Y010796D02*
X006894Y010796D01*
X006936Y010894D02*
X008171Y010894D01*
X008122Y007545D02*
X007480Y007545D01*
X007480Y007447D02*
X008067Y007447D01*
X008550Y004250D02*
X007950Y003650D01*
X007950Y003250D01*
X007750Y003050D01*
X007750Y001850D01*
X007604Y001704D01*
X007304Y001704D01*
X007517Y001438D02*
X007750Y001438D01*
X007750Y001537D02*
X007719Y001537D01*
X007950Y001250D02*
X007650Y000950D01*
X004650Y000950D01*
X004150Y001450D01*
X004150Y001550D01*
X006100Y002916D02*
X006200Y002916D01*
X006200Y003014D02*
X006100Y003014D01*
X006421Y003014D02*
X006550Y003014D01*
X006550Y002916D02*
X006520Y002916D01*
X007950Y002850D02*
X008350Y003250D01*
X008550Y003250D01*
X007950Y002850D02*
X007950Y001250D01*
X008100Y015524D02*
X002000Y015524D01*
D15*
X001550Y014250D02*
X005020Y014250D01*
X007650Y011600D02*
X007650Y007750D01*
X008150Y007250D01*
X008550Y007250D01*
X007250Y006450D02*
X007250Y009350D01*
X005750Y010850D01*
X005750Y009750D01*
X005250Y009250D01*
X005250Y007950D01*
X001550Y004250D01*
X007250Y006450D02*
X008450Y005250D01*
X008550Y005250D01*
M02*
